<?xml version="1.0" standalone="no"?>
<!DOCTYPE svg PUBLIC "-//W3C//DTD SVG 20010904//EN"
 "http://www.w3.org/TR/2001/REC-SVG-20010904/DTD/svg10.dtd">
<svg version="1.0" xmlns="http://www.w3.org/2000/svg"
 width="1600.000000pt" height="639.000000pt" viewBox="0 0 1600.000000 639.000000"
 preserveAspectRatio="xMidYMid meet">

<g transform="translate(0.000000,639.000000) scale(0.100000,-0.100000)"
fill="#000000" stroke="none">
<path d="M3040 4505 c0 -2 16 -35 35 -72 l35 -68 3 -1120 2 -1120 28 -3 27 -3
1 418 c0 230 0 712 -1 1071 -1 358 2 652 7 652 4 0 28 -34 53 -76 25 -41 57
-94 71 -117 15 -23 83 -134 151 -247 69 -113 156 -254 193 -315 90 -146 207
-338 383 -630 80 -132 209 -343 288 -470 78 -126 148 -242 155 -257 l12 -28
169 0 c92 0 168 2 168 4 0 2 -70 118 -157 257 -293 475 -279 447 -271 570 7
89 28 131 199 389 75 113 220 333 324 490 103 157 222 337 264 400 l76 115 3
-1113 2 -1112 140 0 140 0 0 1195 0 1195 -135 0 -135 0 -56 -87 c-120 -187
-151 -236 -217 -340 -38 -60 -143 -225 -234 -368 -304 -477 -336 -530 -370
-606 -18 -42 -38 -100 -45 -128 -6 -28 -14 -51 -17 -51 -3 1 -33 44 -65 98
-33 53 -96 158 -141 232 -77 126 -108 177 -281 458 -37 59 -99 161 -139 227
-165 275 -328 541 -337 553 -8 9 -54 12 -169 12 -88 0 -159 -2 -159 -5z"/>
<path d="M8053 4335 c-46 -74 -113 -145 -178 -190 l-55 -38 0 -159 0 -158
-155 0 -155 0 0 -25 0 -24 153 -3 152 -3 6 -645 c5 -570 7 -652 22 -704 47
-161 148 -255 305 -286 72 -15 238 -9 320 11 48 12 53 15 50 38 -2 19 -8 25
-23 23 -176 -24 -247 -11 -315 57 -86 88 -83 61 -88 829 -2 465 0 672 7 673 6
1 16 3 21 4 6 1 98 3 205 4 l195 1 0 25 0 25 -212 2 -213 3 -5 296 -5 296 -32
-52z"/>
<path d="M9290 3815 c-328 -62 -565 -256 -679 -555 -41 -108 -55 -207 -48
-352 6 -136 28 -232 77 -329 119 -235 288 -376 547 -456 83 -26 99 -27 278
-27 178 0 196 2 278 27 259 80 442 235 552 470 151 322 86 707 -163 964 -91
94 -194 161 -321 210 -145 55 -374 76 -521 48z m315 -60 c319 -83 520 -446
485 -873 -12 -153 -42 -267 -102 -390 -90 -185 -230 -298 -418 -338 -96 -20
-194 -13 -291 22 -159 57 -259 152 -344 329 -62 128 -81 200 -96 356 -41 435
175 825 495 894 84 18 200 18 271 0z"/>
<path d="M6636 3804 c-149 -32 -301 -132 -392 -258 l-44 -60 0 152 0 153 -135
-3 -135 -3 -3 -833 -2 -832 137 0 137 0 3 618 3 617 44 88 c34 68 57 100 107
146 127 116 288 167 433 137 165 -34 258 -130 301 -307 19 -79 20 -117 20
-691 l0 -608 135 0 136 0 -4 618 c-4 681 -1 657 -69 792 -45 88 -138 179 -231
225 -125 61 -294 80 -441 49z"/>
<path d="M11304 3810 c-64 -13 -161 -56 -214 -95 -54 -40 -137 -128 -153 -162
-21 -46 -27 -20 -27 107 l0 130 -135 0 -135 0 0 -835 0 -835 135 0 135 0 0
593 c0 639 3 674 54 774 34 67 112 151 178 191 72 43 178 65 248 52 145 -27
234 -131 265 -307 11 -61 14 -214 15 -690 l0 -613 130 0 130 0 0 595 c0 395 4
612 11 647 39 187 191 337 374 369 166 29 310 -58 374 -227 36 -94 42 -221 39
-817 l-3 -567 138 0 139 0 -5 608 c-5 674 -6 684 -72 818 -43 88 -119 168
-203 212 -153 81 -376 82 -541 1 -77 -38 -193 -149 -238 -228 l-30 -53 -38 76
c-65 132 -166 214 -310 251 -62 16 -192 18 -261 5z"/>
</g>
</svg>
