<?xml version="1.0" standalone="no"?>
<!DOCTYPE svg PUBLIC "-//W3C//DTD SVG 20010904//EN"
 "http://www.w3.org/TR/2001/REC-SVG-20010904/DTD/svg10.dtd">
<svg version="1.0" xmlns="http://www.w3.org/2000/svg"
 width="1600.000000pt" height="900.000000pt" viewBox="0 0 1600.000000 900.000000"
 preserveAspectRatio="xMidYMid meet">

<g transform="translate(0.000000,900.000000) scale(0.100000,-0.100000)"
fill="#000000" stroke="none">
<path d="M3060 6340 c0 -6 15 -39 33 -73 l32 -62 3 -1117 2 -1118 30 0 30 0 0
1067 c0 650 4 1063 9 1058 12 -13 300 -478 476 -770 44 -71 115 -188 160 -260
45 -71 114 -186 155 -255 40 -69 166 -276 280 -460 114 -184 212 -345 219
-357 11 -22 16 -23 176 -23 91 0 165 3 165 6 0 5 -45 81 -194 327 -11 18 -61
100 -111 182 -126 207 -136 239 -110 352 23 102 19 95 632 1013 16 25 72 109
124 188 l94 143 3 -1106 2 -1106 138 3 137 3 3 1188 2 1187 -138 0 -138 0 -24
-42 c-13 -24 -47 -80 -76 -124 -29 -45 -122 -191 -207 -325 -85 -134 -234
-368 -332 -519 -190 -295 -233 -371 -260 -465 -10 -33 -21 -69 -24 -79 -7 -19
-59 57 -195 286 -50 83 -280 456 -297 480 -11 15 -19 30 -19 34 0 3 -9 19 -21
36 -18 25 -133 213 -384 626 l-56 92 -159 0 c-104 0 -160 -4 -160 -10z"/>
<path d="M8048 6174 c-40 -64 -130 -156 -190 -193 l-38 -23 0 -159 0 -159
-161 0 -160 0 3 -32 3 -33 157 -3 157 -3 3 -662 3 -662 23 -56 c45 -111 109
-173 231 -221 48 -19 74 -22 191 -21 80 0 155 6 185 14 44 12 50 18 53 43 4
28 3 29 -35 22 -110 -19 -167 -18 -225 4 -71 26 -108 69 -137 156 -21 63 -21
80 -21 724 l0 660 208 2 207 3 3 33 3 32 -210 0 -211 0 -2 298 -3 297 -37 -61z"/>
<path d="M6680 5655 c-98 -15 -170 -42 -252 -91 -65 -40 -156 -126 -195 -186
l-28 -42 -5 150 -5 149 -132 0 c-73 0 -133 -3 -133 -7 0 -5 0 -379 0 -833 l0
-825 135 0 134 0 3 618 3 618 35 69 c68 136 206 252 339 287 265 69 468 -65
516 -338 12 -71 15 -194 15 -671 l0 -584 133 3 132 3 3 580 c3 645 1 669 -62
800 -58 122 -169 223 -291 265 -53 18 -223 51 -250 49 -5 -1 -48 -7 -95 -14z"/>
<path d="M9250 5651 c-167 -36 -323 -116 -438 -224 -167 -158 -264 -387 -264
-627 -1 -187 41 -327 142 -479 115 -171 295 -292 530 -357 91 -25 366 -26 464
-1 381 96 632 376 676 754 33 276 -94 577 -320 760 -198 160 -521 231 -790
174z m386 -66 c192 -60 344 -237 415 -482 42 -149 44 -404 4 -566 -66 -260
-217 -441 -431 -513 -71 -23 -89 -26 -194 -22 -98 4 -125 9 -184 33 -119 49
-224 145 -297 272 -84 148 -121 292 -121 483 -1 203 27 332 108 490 96 190
256 304 464 330 83 10 147 4 236 -25z"/>
<path d="M11290 5653 c-137 -27 -278 -121 -352 -235 l-33 -53 -3 136 -3 136
-134 1 -135 1 0 -835 0 -834 135 0 135 0 0 608 c0 655 0 654 55 762 41 82 148
181 227 211 92 35 204 33 275 -4 63 -33 123 -105 152 -182 36 -97 42 -212 40
-815 l-2 -575 132 -3 131 -3 0 594 c0 649 0 648 60 767 37 74 129 165 203 203
99 50 217 58 306 21 93 -38 149 -103 193 -220 23 -58 23 -66 28 -709 l5 -650
132 0 133 0 0 600 c1 363 -3 620 -9 651 -34 171 -131 313 -259 378 -180 91
-418 80 -587 -29 -86 -55 -175 -153 -204 -224 -8 -17 -16 -31 -20 -31 -3 0
-23 35 -43 78 -70 150 -169 226 -331 257 -94 18 -129 18 -227 -2z"/>
<path d="M4859 3458 c-1 -2 -2 -63 -4 -136 -1 -73 -5 -135 -8 -138 -3 -3 -11
4 -17 16 -30 55 -167 78 -244 40 -136 -67 -153 -291 -32 -398 66 -57 184 -56
254 3 22 19 42 35 44 35 2 0 4 -15 4 -32 -1 -29 2 -33 27 -33 15 0 27 3 27 8
0 4 0 149 0 322 l0 315 -25 0 c-14 0 -26 -1 -26 -2z m-93 -234 c71 -34 97
-103 87 -228 -6 -72 -9 -83 -41 -118 -43 -47 -95 -63 -154 -48 -79 22 -118 91
-118 212 0 149 109 237 226 182z"/>
<path d="M6000 3135 l0 -326 28 3 27 3 0 320 0 320 -27 3 -28 3 0 -326z"/>
<path d="M9720 3458 c0 -2 -1 -147 -2 -323 l-2 -320 27 -3 c28 -3 33 9 28 62
-1 14 9 10 43 -22 98 -91 255 -59 316 63 34 68 33 174 -1 236 -38 67 -86 100
-156 106 -73 7 -123 -8 -160 -48 -15 -16 -31 -29 -35 -29 -4 0 -5 26 -2 58 2
31 1 94 -2 140 -6 78 -8 82 -30 82 -13 0 -24 -1 -24 -2z m286 -237 c97 -59
115 -262 31 -349 -70 -73 -185 -61 -238 25 -21 33 -24 51 -24 134 0 86 2 99
26 135 47 70 139 95 205 55z"/>
<path d="M6420 3425 c-7 -8 -10 -25 -6 -40 8 -33 61 -36 71 -5 16 49 -33 83
-65 45z"/>
<path d="M7640 3258 c-124 -22 -201 -148 -171 -282 26 -116 96 -170 222 -171
65 0 81 4 115 26 39 26 73 73 61 85 -3 4 -18 -8 -33 -25 -32 -38 -57 -52 -108
-62 -47 -8 -103 6 -135 34 -51 47 -82 166 -43 167 9 1 90 0 180 0 l162 -1 0
39 c0 128 -113 214 -250 190z m129 -44 c39 -32 49 -51 60 -109 l8 -45 -153 0
-154 0 0 25 c0 41 24 88 64 123 32 28 44 32 91 32 43 0 59 -5 84 -26z"/>
<path d="M8373 3250 c-22 -10 -54 -35 -71 -56 l-32 -39 0 48 c0 43 -2 47 -25
47 -14 0 -26 -6 -26 -12 -1 -7 -1 -105 0 -218 l1 -205 25 -3 25 -3 0 143 c0
118 4 150 19 184 26 58 65 86 116 82 34 -2 40 0 43 18 4 30 -27 36 -75 14z"/>
<path d="M5376 3250 c-39 -12 -94 -66 -117 -115 -25 -53 -25 -156 0 -210 63
-139 266 -169 368 -55 23 25 30 50 15 50 -5 0 -18 -13 -30 -30 -28 -37 -64
-56 -122 -65 -92 -13 -176 65 -183 169 l-2 38 185 2 185 1 -4 40 c-6 76 -62
151 -130 174 -39 13 -123 13 -165 1z m160 -29 c35 -21 74 -93 74 -134 l0 -27
-145 0 c-80 0 -148 1 -152 3 -13 4 -3 59 16 97 38 75 137 104 207 61z"/>
<path d="M6425 3252 c-3 -3 -5 -104 -5 -224 l0 -218 30 0 30 0 -2 222 -3 221
-23 2 c-12 1 -24 -1 -27 -3z"/>
<path d="M10583 3253 c-33 -6 -112 -81 -129 -122 -18 -42 -20 -144 -4 -186 35
-93 109 -140 220 -140 148 0 230 81 230 227 -1 103 -47 176 -137 213 -33 14
-128 18 -180 8z m198 -62 c96 -108 62 -322 -58 -362 -57 -18 -121 -3 -164 40
-84 84 -73 283 20 347 31 22 44 25 100 22 61 -4 66 -6 102 -47z"/>
<path d="M6804 3193 c13 -32 48 -114 79 -183 30 -69 62 -142 70 -162 21 -49
51 -51 72 -5 8 17 30 70 51 117 20 47 56 129 80 183 50 111 48 107 32 107 -7
0 -49 -84 -92 -185 -43 -102 -82 -185 -86 -185 -3 0 -42 83 -85 185 l-78 185
-33 0 -33 0 23 -57z"/>
<path d="M8724 3218 c8 -18 53 -118 101 -223 l86 -189 -16 -42 c-9 -24 -26
-58 -39 -76 -20 -29 -27 -33 -64 -31 -36 1 -42 -1 -42 -18 0 -29 60 -26 98 6
29 24 39 47 192 405 22 52 44 102 50 111 5 9 16 33 24 53 12 29 13 36 1 36 -7
0 -18 -12 -23 -27 -31 -84 -142 -328 -148 -326 -7 1 -92 180 -139 293 -21 51
-26 55 -59 58 l-37 3 15 -33z"/>
<path d="M11140 3246 c0 -3 17 -42 38 -88 96 -206 152 -336 152 -353 0 -9 -13
-45 -30 -79 -30 -64 -64 -92 -91 -75 -23 14 -39 10 -39 -10 0 -25 36 -33 75
-17 37 16 72 78 166 296 34 80 79 185 100 234 36 82 43 114 20 90 -5 -5 -30
-58 -55 -119 -79 -188 -101 -234 -108 -235 -5 0 -8 4 -8 9 0 5 -24 60 -53 122
-30 63 -64 140 -78 171 -22 53 -26 58 -56 58 -18 0 -33 -2 -33 -4z"/>
</g>
</svg>
