<?xml version="1.0" standalone="no"?>
<!DOCTYPE svg PUBLIC "-//W3C//DTD SVG 20010904//EN"
 "http://www.w3.org/TR/2001/REC-SVG-20010904/DTD/svg10.dtd">
<svg version="1.0" xmlns="http://www.w3.org/2000/svg"
 width="1600.000000pt" height="900.000000pt" viewBox="0 0 1600.000000 900.000000"
 preserveAspectRatio="xMidYMid meet">

<g transform="translate(0.000000,900.000000) scale(0.100000,-0.100000)"
fill="#000000" stroke="none">
<path d="M3057 6344 c-2 -3 12 -35 32 -72 l36 -67 3 -1117 2 -1118 30 0 30 0
2 1067 3 1068 65 -109 c106 -176 118 -196 334 -546 115 -184 289 -470 389
-635 99 -165 250 -412 335 -550 85 -137 159 -260 165 -272 10 -23 14 -23 179
-23 92 0 168 3 168 6 0 3 -91 153 -202 332 -111 179 -208 344 -216 366 -8 26
-12 68 -10 113 3 60 10 84 44 150 39 75 798 1225 812 1231 4 1 6 -493 4 -1098
l-3 -1100 145 0 145 0 -2 1188 -2 1187 -132 3 c-127 2 -132 2 -148 -20 -22
-32 -178 -276 -363 -568 -134 -212 -221 -346 -404 -625 -56 -85 -114 -208
-136 -290 l-19 -69 -35 54 c-29 46 -356 577 -539 875 -27 44 -127 206 -222
360 l-172 280 -157 1 c-86 1 -159 0 -161 -2z"/>
<path d="M8056 6177 c-35 -61 -160 -188 -205 -208 l-31 -14 -2 -160 -3 -160
-152 -3 -153 -3 0 -24 0 -25 138 -1 c75 -1 144 -2 152 -3 13 -1 16 -83 21
-651 3 -390 10 -664 16 -685 65 -226 250 -327 531 -292 138 18 142 19 142 54
l0 30 -52 -9 c-190 -30 -297 21 -344 165 -18 53 -19 101 -19 722 0 584 2 665
15 666 8 1 102 2 208 3 l192 1 0 25 0 25 -197 0 c-109 0 -204 4 -210 8 -10 6
-13 82 -15 300 l-3 292 -29 -53z"/>
<path d="M9255 5651 c-182 -38 -329 -116 -454 -240 -236 -234 -313 -601 -194
-921 52 -142 177 -301 306 -389 70 -47 204 -108 294 -133 113 -31 383 -31 495
0 237 65 406 182 522 360 58 90 86 151 117 262 30 107 33 306 5 410 -89 338
-330 570 -671 646 -113 25 -313 27 -420 5z m342 -55 c121 -32 245 -116 319
-214 54 -73 120 -218 145 -317 29 -118 32 -358 5 -479 -62 -281 -215 -484
-421 -557 -76 -27 -231 -37 -306 -19 -30 7 -90 29 -135 50 -153 74 -280 246
-340 461 -34 127 -44 344 -20 470 43 228 128 387 270 501 69 55 125 83 204
103 75 18 214 18 279 1z"/>
<path d="M11355 5660 c-81 -10 -139 -27 -207 -61 -67 -34 -176 -132 -203 -183
-11 -20 -23 -36 -27 -36 -4 0 -9 57 -10 126 l-3 126 -130 -1 c-71 -1 -131 -4
-133 -6 -7 -7 -12 -1597 -5 -1627 l5 -28 134 0 133 0 3 638 3 637 38 77 c88
176 275 283 438 249 149 -31 235 -150 259 -358 5 -49 10 -341 10 -665 l0 -578
130 0 130 0 0 603 c0 521 2 611 16 658 49 169 185 302 342 336 204 44 359 -61
416 -283 14 -53 16 -148 16 -688 l0 -626 135 0 135 0 0 603 c0 670 -2 685 -66
815 -86 176 -253 272 -474 272 -103 0 -204 -25 -289 -70 -78 -42 -179 -141
-217 -214 -16 -31 -31 -56 -34 -56 -3 0 -15 26 -28 58 -49 128 -173 234 -310
265 -92 22 -137 25 -207 17z"/>
<path d="M6635 5644 c-151 -32 -318 -144 -396 -266 l-34 -53 -5 155 c-3 85 -8
154 -12 153 -5 -2 -64 -3 -133 -3 l-125 0 0 -830 0 -830 135 0 134 0 3 613 3
613 39 79 c80 163 233 274 407 297 75 10 97 9 155 -6 158 -38 253 -149 288
-335 13 -70 16 -177 16 -672 l0 -589 135 0 135 0 0 584 c0 653 -2 682 -67 811
-47 95 -136 184 -228 229 -127 62 -299 81 -450 50z"/>
<path d="M7820 3135 l0 -315 30 0 30 0 0 315 0 315 -30 0 -30 0 0 -315z"/>
<path d="M8220 3135 l0 -315 25 0 25 0 0 315 0 315 -25 0 -25 0 0 -315z"/>
<path d="M6573 3251 c-68 -31 -91 -97 -54 -157 15 -25 38 -39 115 -68 100 -39
126 -61 126 -108 0 -98 -168 -120 -215 -28 -9 18 -23 30 -35 30 -24 0 -24 -3
-6 -39 26 -49 62 -66 146 -66 62 0 81 4 106 22 39 28 58 72 50 116 -10 53 -55
86 -163 121 -87 29 -116 88 -70 141 43 50 133 42 165 -15 9 -16 25 -30 35 -30
41 0 1 62 -54 84 -52 21 -95 20 -146 -3z"/>
<path d="M7241 3259 c-86 -21 -151 -115 -151 -221 0 -167 159 -276 305 -209
39 17 95 72 95 92 0 17 -13 9 -49 -30 -63 -68 -157 -78 -222 -24 -38 32 -68
95 -69 141 l0 32 178 0 c98 0 181 2 184 5 3 3 1 29 -3 57 -19 118 -137 187
-268 157z m129 -31 c48 -25 76 -69 82 -128 l3 -35 -154 -3 -154 -3 6 41 c10
79 80 149 147 150 14 0 46 -10 70 -22z"/>
<path d="M8713 3253 c-89 -38 -133 -107 -133 -213 0 -74 22 -130 66 -172 87
-81 234 -75 307 11 41 49 21 59 -24 12 -43 -45 -102 -66 -155 -56 -65 12 -128
89 -136 165 l-3 35 183 3 182 2 0 33 c0 58 -43 132 -94 162 -59 34 -136 42
-193 18z m156 -30 c41 -32 63 -68 68 -117 l6 -46 -150 0 c-82 0 -152 2 -155 5
-11 12 14 91 39 123 14 19 40 40 57 48 39 18 101 12 135 -13z"/>
<path d="M9464 3255 c-17 -8 -43 -28 -57 -44 -14 -17 -28 -31 -31 -31 -3 0 -6
18 -6 41 0 38 -1 40 -27 37 l-28 -3 -3 -217 -2 -218 30 0 30 0 0 133 c0 151
10 199 50 239 23 23 37 28 74 28 42 0 46 2 46 25 0 29 -25 32 -76 10z"/>
</g>
</svg>
