<?xml version="1.0" encoding="UTF-8"?>
<svg version="1.1" xmlns="http://www.w3.org/2000/svg" width="921" height="185">
<path d="M0 0 C303.93 0 607.86 0 921 0 C921 61.05 921 122.1 921 185 C617.07 185 313.14 185 0 185 C0 123.95 0 62.9 0 0 Z " fill="#EBECED" transform="translate(0,0)"/>
<path d="M0 0 C2.20703125 1.11328125 2.20703125 1.11328125 5.20703125 3.23828125 C8.1847164 4.45028584 8.1847164 4.45028584 10.8359375 2.99609375 C12.76100728 1.92461683 14.65917549 0.80299466 16.5234375 -0.37109375 C23.82210823 -4.493196 35.0872972 -4.07184237 43.16015625 -2.203125 C55.5080176 2.4758602 63.51554616 10.045019 69.2265625 21.78125 C72.75981639 30.18504511 72.63940266 41.6489867 69.20703125 50.11328125 C64.62195197 60.8224874 57.830698 68.42079484 47.08203125 73.17578125 C35.74047998 77.04980936 23.72734081 75.55698328 12.20703125 73.11328125 C12.20703125 72.45328125 12.20703125 71.79328125 12.20703125 71.11328125 C6.8010183 71.36486728 6.8010183 71.36486728 2.14453125 73.67578125 C-0.74220867 75.81755603 -3.31044193 75.31419626 -6.79296875 75.11328125 C-6.79296875 75.77328125 -6.79296875 76.43328125 -6.79296875 77.11328125 C-6.13296875 77.11328125 -5.47296875 77.11328125 -4.79296875 77.11328125 C-4.79296875 78.10328125 -4.79296875 79.09328125 -4.79296875 80.11328125 C-3.80296875 80.44328125 -2.81296875 80.77328125 -1.79296875 81.11328125 C-1.79296875 82.10328125 -1.79296875 83.09328125 -1.79296875 84.11328125 C-0.80296875 84.11328125 0.18703125 84.11328125 1.20703125 84.11328125 C1.20703125 85.10328125 1.20703125 86.09328125 1.20703125 87.11328125 C-0.11296875 87.11328125 -1.43296875 87.11328125 -2.79296875 87.11328125 C-2.46296875 88.76328125 -2.13296875 90.41328125 -1.79296875 92.11328125 C-0.80296875 92.44328125 0.18703125 92.77328125 1.20703125 93.11328125 C1.20703125 93.77328125 1.20703125 94.43328125 1.20703125 95.11328125 C-0.4590878 95.15600225 -2.1267976 95.15391957 -3.79296875 95.11328125 C-4.79296875 94.11328125 -4.79296875 94.11328125 -4.85546875 90.55078125 C-4.83484375 89.41640625 -4.81421875 88.28203125 -4.79296875 87.11328125 C-9.24796875 87.60828125 -9.24796875 87.60828125 -13.79296875 88.11328125 C-12.14296875 88.77328125 -10.49296875 89.43328125 -8.79296875 90.11328125 C-9.12296875 91.76328125 -9.45296875 93.41328125 -9.79296875 95.11328125 C-12.43296875 95.11328125 -15.07296875 95.11328125 -17.79296875 95.11328125 C-17.29796875 93.62828125 -17.29796875 93.62828125 -16.79296875 92.11328125 C-15.14296875 92.11328125 -13.49296875 92.11328125 -11.79296875 92.11328125 C-12.99953125 91.74203125 -12.99953125 91.74203125 -14.23046875 91.36328125 C-16.79296875 90.11328125 -16.79296875 90.11328125 -17.73046875 88.11328125 C-17.75109375 87.45328125 -17.77171875 86.79328125 -17.79296875 86.11328125 C-15.22750935 83.54782185 -13.31610207 83.57282038 -9.79296875 83.11328125 C-9.79296875 81.13328125 -9.79296875 79.15328125 -9.79296875 77.11328125 C-10.83195313 77.0153125 -11.8709375 76.91734375 -12.94140625 76.81640625 C-27.98378677 75.26303842 -39.24562993 71.21400314 -49.25390625 59.33203125 C-51.86788322 55.56365837 -53.41604831 51.46612652 -54.79296875 47.11328125 C-54.98503906 46.51257813 -55.17710937 45.911875 -55.375 45.29296875 C-57.45292359 34.45669435 -56.30620712 23.91045865 -50.1796875 14.68359375 C-38.16449457 -1.56755411 -18.88370527 -7.7856356 0 0 Z " fill="#F69E1C" transform="translate(541.79296875,45.88671875)"/>
<path d="M0 0 C7.59947356 6.37812959 13.28416069 14.89213886 15.1875 24.75 C16.20930834 37.8995008 13.57282709 48.45434659 5.1875 58.75 C-1.36774231 65.6599966 -10.245012 70.27687355 -19.765625 71.0859375 C-21.1976659 71.11573375 -22.63015273 71.12820113 -24.0625 71.125 C-24.81249268 71.12338867 -25.56248535 71.12177734 -26.33520508 71.12011719 C-37.92581122 70.86496626 -46.29080019 65.52982706 -54.296875 57.43359375 C-56.67576232 54.79106686 -57.8125 53.37314495 -57.8125 49.75 C-58.4725 49.75 -59.1325 49.75 -59.8125 49.75 C-63.85448265 39.30821149 -63.56214976 28.68531099 -61.8125 17.75 C-61.1525 17.75 -60.4925 17.75 -59.8125 17.75 C-59.5959375 16.6053125 -59.5959375 16.6053125 -59.375 15.4375 C-58.8125 12.75 -58.8125 12.75 -57.8125 9.75 C-57.1525 9.75 -56.4925 9.75 -55.8125 9.75 C-55.8125 9.09 -55.8125 8.43 -55.8125 7.75 C-55.1525 7.75 -54.4925 7.75 -53.8125 7.75 C-53.41417969 6.8528125 -53.41417969 6.8528125 -53.0078125 5.9375 C-49.73910627 -0.04444604 -43.02675867 -3.87395992 -36.8125 -6.25 C-24.02561186 -9.55695383 -10.69402974 -7.76294186 0 0 Z " fill="#03A1E3" transform="translate(169.8125,50.25)"/>
<path d="M0 0 C0.72703125 0.44988281 1.4540625 0.89976563 2.203125 1.36328125 C0.83368398 4.31284653 -0.67517909 6.88796936 -2.796875 9.36328125 C-3.456875 9.36328125 -4.116875 9.36328125 -4.796875 9.36328125 C-4.796875 10.02328125 -4.796875 10.68328125 -4.796875 11.36328125 C-5.456875 11.36328125 -6.116875 11.36328125 -6.796875 11.36328125 C-6.94125 11.94078125 -7.085625 12.51828125 -7.234375 13.11328125 C-7.75520833 15.19661458 -8.27604167 17.27994792 -8.796875 19.36328125 C-9.456875 19.36328125 -10.116875 19.36328125 -10.796875 19.36328125 C-10.85528753 22.90487782 -10.89060952 26.44634918 -10.921875 29.98828125 C-10.93863281 30.98730469 -10.95539063 31.98632812 -10.97265625 33.015625 C-11.00746687 38.27202852 -10.73333039 42.40778518 -8.796875 47.36328125 C-8.796875 48.68328125 -8.796875 50.00328125 -8.796875 51.36328125 C-8.136875 51.36328125 -7.476875 51.36328125 -6.796875 51.36328125 C-6.24 52.41515625 -5.683125 53.46703125 -5.109375 54.55078125 C-3.13516344 58.04633864 -0.67669397 60.56345725 2.203125 63.36328125 C2.203125 64.02328125 2.203125 64.68328125 2.203125 65.36328125 C0.26687402 66.34491547 -1.67092039 67.32350579 -3.609375 68.30078125 C-4.68832031 68.84605469 -5.76726562 69.39132813 -6.87890625 69.953125 C-15.00155815 73.87852974 -25.57896376 73.55578047 -34.30078125 71.5625 C-44.48916106 67.69702604 -53.05868206 60.22488606 -57.796875 50.36328125 C-58.11398438 49.72390625 -58.43109375 49.08453125 -58.7578125 48.42578125 C-62.38193418 39.64809205 -62.13991662 28.27982469 -59.171875 19.36328125 C-54.81418532 9.18518087 -47.31588877 1.27464432 -37.359375 -3.57421875 C-24.90534264 -8.33512732 -11.38568631 -6.66285274 0 0 Z " fill="#E8011C" transform="translate(118.796875,48.63671875)"/>
<path d="M0 0 C2.50955366 1.27611657 4.90332863 2.68685583 7.296875 4.16796875 C5.99574235 7.02426471 4.58099495 9.09007088 2.421875 11.35546875 C-5.4397971 20.27433392 -6.40601387 30.77718291 -5.87792969 42.18066406 C-5.17523532 50.16939612 -1.3940722 56.23203698 3.7109375 62.1953125 C5.25034968 64.11009858 6.28836515 65.93626626 7.296875 68.16796875 C5.38275943 69.15211308 3.4654783 70.13010224 1.546875 71.10546875 C0.47953125 71.65074219 -0.5878125 72.19601563 -1.6875 72.7578125 C-9.69349657 76.50154924 -20.18063565 76.40224159 -28.76171875 74.484375 C-38.28966735 70.90210415 -47.41331498 63.78746527 -51.9921875 54.57421875 C-52.99409632 52.12350652 -53.90474794 49.69187041 -54.703125 47.16796875 C-54.89519531 46.56726563 -55.08726562 45.9665625 -55.28515625 45.34765625 C-57.36307984 34.51138185 -56.21636337 23.96514615 -50.08984375 14.73828125 C-38.15833533 -1.39967915 -18.80880308 -7.8170344 0 0 Z " fill="#E8021B" transform="translate(541.703125,45.83203125)"/>
<path d="M0 0 C28.05 0 56.1 0 85 0 C85 9.57 85 19.14 85 29 C56.95 29 28.9 29 0 29 C0 19.43 0 9.86 0 0 Z " fill="#83B73F" transform="translate(663,97)"/>
<path d="M0 0 C28.05 0 56.1 0 85 0 C85 9.24 85 18.48 85 28 C56.95 28 28.9 28 0 28 C0 18.76 0 9.52 0 0 Z " fill="#249AD4" transform="translate(663,59)"/>
<path d="M0 0 C0.79921875 0.01289062 1.5984375 0.02578125 2.421875 0.0390625 C3.659375 0.08933594 3.659375 0.08933594 4.921875 0.140625 C5.76234375 0.15867188 6.6028125 0.17671875 7.46875 0.1953125 C9.53694895 0.24231702 11.60455941 0.31405776 13.671875 0.390625 C13.95067505 1.74704102 13.95067505 1.74704102 14.23510742 3.13085938 C14.79253517 5.84224291 15.35014785 8.55358794 15.90795898 11.26489258 C16.54491693 14.36093501 17.18102617 17.4571503 17.81665039 20.5534668 C19.27385348 27.64561317 20.73833758 34.73561541 22.25 41.81640625 C22.48178955 42.90695313 22.7135791 43.9975 22.95239258 45.12109375 C23.38030381 47.12850786 23.81223135 49.13507138 24.2487793 51.140625 C24.43867432 52.03394531 24.62856934 52.92726562 24.82421875 53.84765625 C24.98913818 54.61053955 25.15405762 55.37342285 25.32397461 56.15942383 C25.671875 58.390625 25.671875 58.390625 25.671875 63.390625 C20.721875 63.390625 15.771875 63.390625 10.671875 63.390625 C10.341875 60.090625 10.011875 56.790625 9.671875 53.390625 C-0.723125 53.885625 -0.723125 53.885625 -11.328125 54.390625 C-12.648125 57.360625 -13.968125 60.330625 -15.328125 63.390625 C-20.938125 63.390625 -26.548125 63.390625 -32.328125 63.390625 C-30.07826126 56.64103378 -30.07826126 56.64103378 -28.83520508 53.67456055 C-28.5576387 53.00913742 -28.28007233 52.34371429 -27.99409485 51.65812683 C-27.69827011 50.95496841 -27.40244537 50.25181 -27.09765625 49.52734375 C-26.78414719 48.77709427 -26.47063812 48.02684479 -26.14762878 47.25386047 C-25.14731539 44.86109697 -24.14409608 42.46956573 -23.140625 40.078125 C-22.15974635 37.73563032 -21.17949233 35.39287673 -20.19992065 33.04983521 C-19.5488617 31.49425097 -18.89629562 29.93929664 -18.24221802 28.38497925 C-16.59480415 24.46236701 -14.9793125 20.53107095 -13.41943359 16.57275391 C-12.95750862 15.41293755 -12.95750862 15.41293755 -12.48625183 14.22969055 C-11.9059451 12.76855668 -11.33370817 11.3041811 -10.77119446 9.83610535 C-8.57364629 4.33269172 -6.45539885 -0.18443997 0 0 Z " fill="#06589D" transform="translate(409.328125,60.609375)"/>
<path d="M0 0 C0.83724609 -0.00773437 1.67449219 -0.01546875 2.53710938 -0.0234375 C6.9463024 -0.00947331 10.42907452 0.18430834 14.4375 2.25 C13.47394647 11.66002278 13.47394647 11.66002278 12.4375 16.25 C11.07625 15.755 11.07625 15.755 9.6875 15.25 C4.42431068 13.74006864 -1.13960663 13.71088195 -6.5625 14.25 C-7.5525 14.91 -8.5425 15.57 -9.5625 16.25 C-9.41818442 18.65605157 -9.41818442 18.65605157 -8.5625 21.25 C-6.52539693 22.97519898 -6.52539693 22.97519898 -3.9375 24.25 C-3.03644531 24.75402344 -2.13539063 25.25804688 -1.20703125 25.77734375 C-0.33433594 26.26332031 0.53835938 26.74929687 1.4375 27.25 C5.85951914 30.00456645 9.10458187 32.48838411 11.4375 37.25 C12.30566239 43.57396721 12.33067436 49.97537667 8.4375 55.25 C2.83721451 61.25030588 -3.47002266 64.2932444 -11.69140625 64.6484375 C-13.50260392 64.65630657 -15.3139347 64.6482685 -17.125 64.625 C-18.4852832 64.64240234 -18.4852832 64.64240234 -19.87304688 64.66015625 C-25.53565135 64.63551838 -29.52731739 63.86083543 -34.5625 61.25 C-33.9025 56.63 -33.2425 52.01 -32.5625 47.25 C-31.345625 47.745 -30.12875 48.24 -28.875 48.75 C-22.56688582 50.86271761 -14.43034177 51.90222046 -8.17578125 49.23046875 C-7.64339844 48.90691406 -7.11101562 48.58335938 -6.5625 48.25 C-6.14379447 45.91928121 -6.14379447 45.91928121 -6.5625 43.25 C-9.46237661 40.25346083 -12.97678499 38.43544818 -16.5625 36.375 C-21.84053515 33.26795994 -25.56748006 30.23505981 -27.5625 24.25 C-28.38909621 18.26308172 -27.61375209 13.99746765 -24.1171875 9.0390625 C-17.51351774 1.43986464 -9.68921286 -0.08992309 0 0 Z " fill="#05579D" transform="translate(366.5625,59.75)"/>
<path d="M0 0 C1.58206057 0.00667536 3.16410534 0.0186375 4.74609375 0.03515625 C5.55240234 0.03966797 6.35871094 0.04417969 7.18945312 0.04882812 C9.18753131 0.06065107 11.18557158 0.07858711 13.18359375 0.09765625 C12.55525395 3.77769523 11.5310015 6.99220885 10.1015625 10.4375 C9.66948486 11.48703857 9.23740723 12.53657715 8.79223633 13.61791992 C8.32325928 14.74560791 7.85428223 15.8732959 7.37109375 17.03515625 C6.377967 19.44622792 5.38581818 21.85770258 4.39453125 24.26953125 C4.13632095 24.89667526 3.87811066 25.52381927 3.61207581 26.16996765 C0.52106258 33.68735396 -2.49162138 41.23596205 -5.50390625 48.78515625 C-6.03814491 50.12297444 -6.57240543 51.46078391 -7.10668945 52.79858398 C-8.34402189 55.89797137 -9.58033325 58.99776637 -10.81640625 62.09765625 C-16.75640625 62.09765625 -22.69640625 62.09765625 -28.81640625 62.09765625 C-33.35453297 49.19982241 -36.64108431 35.87138313 -40.12890625 22.66015625 C-40.39550049 21.65903809 -40.66209473 20.65791992 -40.93676758 19.62646484 C-41.18193115 18.69012207 -41.42709473 17.7537793 -41.6796875 16.7890625 C-41.89923096 15.95576416 -42.11877441 15.12246582 -42.3449707 14.26391602 C-42.81640625 12.09765625 -42.81640625 12.09765625 -42.81640625 9.09765625 C-32.64761231 13.76492974 -25.20251287 23.22486314 -21.109375 33.3984375 C-20.45811646 35.00392456 -20.45811646 35.00392456 -19.79370117 36.6418457 C-19.47119385 37.45226318 -19.14868652 38.26268066 -18.81640625 39.09765625 C-18.3975415 37.95176025 -17.97867676 36.80586426 -17.54711914 35.62524414 C-15.99750926 31.38821311 -14.44426226 27.15252327 -12.88989258 22.91723633 C-12.21669249 21.08133953 -11.54448941 19.24507682 -10.87329102 17.40844727 C-9.91031402 14.7739412 -8.94380025 12.14075675 -7.9765625 9.5078125 C-7.67549088 8.68177017 -7.37441925 7.85572784 -7.06422424 7.00465393 C-4.52666878 0.11583083 -4.52666878 0.11583083 0 0 Z " fill="#05579C" transform="translate(295.81640625,60.90234375)"/>
<path d="M0 0 C7.91594202 5.85779709 13.33433491 14.17257597 15 24 C15.5450248 32.17537194 15.49628848 39.50193556 12 47 C11.47212891 48.15628906 11.47212891 48.15628906 10.93359375 49.3359375 C8.19128113 54.78436058 4.90162031 58.39794473 0 62 C-9.6866736 52.04892588 -14.28863213 43.13806166 -14.31689453 29.28320312 C-14.10781438 17.85348813 -9.35169822 9.63336655 -1.625 1.5 C-0.820625 0.7575 -0.820625 0.7575 0 0 Z " fill="#FD5901" transform="translate(549,51)"/>
<path d="M0 0 C0.66 1.32 1.32 2.64 2 4 C2.66 4 3.32 4 4 4 C6.68639502 6.93061274 8.1725333 9.13848874 9 13 C9.66 13.33 10.32 13.66 11 14 C11 14.99 11 15.98 11 17 C11.66 17 12.32 17 13 17 C13.87078259 21.52110322 14.16394645 25.83513559 14.1875 30.4375 C14.20167969 31.69433594 14.21585938 32.95117188 14.23046875 34.24609375 C13.98767561 38.20074132 13.22245831 41.25531545 12 45 C11.34 45 10.68 45 10 45 C10 45.99 10 46.98 10 48 C9.34 48 8.68 48 8 48 C7.896875 48.70125 7.79375 49.4025 7.6875 50.125 C6.49611551 55.10715334 4.09227336 58.98349968 1 63 C-0.29477062 61.73232923 -1.58570339 60.46073776 -2.875 59.1875 C-3.59429687 58.47980469 -4.31359375 57.77210937 -5.0546875 57.04296875 C-7.65795508 54.30901505 -9 52.85667109 -9 49 C-9.66 49 -10.32 49 -11 49 C-15.04198265 38.55821149 -14.74964976 27.93531099 -13 17 C-12.34 17 -11.68 17 -11 17 C-10.7834375 15.8553125 -10.7834375 15.8553125 -10.5625 14.6875 C-10 12 -10 12 -9 9 C-8.34 9 -7.68 9 -7 9 C-7 8.34 -7 7.68 -7 7 C-6.34 7 -5.68 7 -5 7 C-4.731875 6.401875 -4.46375 5.80375 -4.1875 5.1875 C-3.01506533 3.02775192 -1.80630718 1.64209744 0 0 Z " fill="#7674CC" transform="translate(121,51)"/>
<path d="M0 0 C5.28 0 10.56 0 16 0 C15.38080311 7.63676166 14.44008913 15.13079749 13.1875 22.6875 C13.01371826 23.75242676 12.83993652 24.81735352 12.66088867 25.91455078 C12.29629458 28.14337163 11.92981766 30.37188524 11.56152344 32.60009766 C10.9970648 36.01777201 10.43951028 39.43652256 9.8828125 42.85546875 C9.52644602 45.02871218 9.16968926 47.20189165 8.8125 49.375 C8.64580811 50.39682373 8.47911621 51.41864746 8.30737305 52.47143555 C8.15051025 53.41672119 7.99364746 54.36200684 7.83203125 55.3359375 C7.62670776 56.58189697 7.62670776 56.58189697 7.41723633 57.85302734 C7 60 7 60 6 63 C0.72 63 -4.56 63 -10 63 C-9.52819285 54.27156765 -8.14073878 45.93827441 -6.51489258 37.36108398 C-5.45989917 31.73110328 -4.5713054 26.12979 -3.9375 20.4375 C-3.13807725 13.45875543 -1.70324396 6.81297585 0 0 Z " fill="#08589C" transform="translate(316,61)"/>
<path d="M0 0 C0.33 0 0.66 0 1 0 C1 3.96 1 7.92 1 12 C-302.93 12 -606.86 12 -920 12 C-920 8.37 -920 4.74 -920 1 C-919.01 2.485 -919.01 2.485 -918 4 C-913.95685015 8.58555297 -913.95685015 8.58555297 -908.37798892 10.12656184 C-907.25283929 10.12730082 -906.12768966 10.1280398 -904.96844459 10.12880117 C-903.02244513 10.13370946 -903.02244513 10.13370946 -901.03713256 10.13871691 C-899.58081447 10.1373066 -898.12449647 10.13580457 -896.66817856 10.13422108 C-895.12766125 10.1361725 -893.58714444 10.13856076 -892.04662842 10.14134905 C-887.77860458 10.14777844 -883.5105995 10.14790834 -879.24257174 10.14707164 C-874.61239762 10.14724056 -869.98223034 10.15314017 -865.3520596 10.1583125 C-856.15308975 10.16765954 -846.95412471 10.17156407 -837.7551507 10.17383147 C-826.74318242 10.17678805 -815.73122057 10.1854822 -804.71925564 10.19424575 C-778.09995663 10.2151127 -751.48065648 10.22556317 -724.86135119 10.23437535 C-712.27598546 10.23857834 -699.69062021 10.24380077 -687.10525489 10.24905988 C-644.72414154 10.26667081 -602.34302776 10.28172499 -559.96191131 10.28903012 C-556.58268223 10.2896141 -553.20345315 10.29021136 -549.82422407 10.29080774 C-549.15388268 10.29092586 -548.48354129 10.29104398 -547.79288653 10.29116567 C-541.00122458 10.29236308 -534.20956264 10.29357184 -527.41790071 10.29479821 C-526.05613757 10.29504344 -524.69437442 10.2952873 -523.33261128 10.29552978 C-479.58989561 10.30332092 -435.84720677 10.32570707 -392.10450282 10.3582062 C-345.20965144 10.39303551 -298.31481519 10.41367979 -251.41994882 10.41702431 C-246.3505454 10.41744188 -241.28114199 10.41792144 -236.21173859 10.41844749 C-234.33930757 10.41863228 -234.33930757 10.41863228 -232.42904966 10.4188208 C-212.30688173 10.42115662 -192.18474517 10.43683775 -172.06258843 10.45728934 C-151.85193589 10.47750562 -131.64132118 10.48304457 -111.4306604 10.47351871 C-99.41200725 10.46828746 -87.39347967 10.47425756 -75.3748445 10.49605338 C-67.35596375 10.50950115 -59.33717002 10.50853812 -51.31828853 10.49565142 C-46.74315449 10.48871446 -42.16826154 10.48822171 -37.59314844 10.50521151 C-33.43469394 10.52052892 -29.27667604 10.51758712 -25.11823503 10.49980123 C-23.61967297 10.49663968 -22.12107822 10.500248 -20.62255352 10.51129298 C-18.59272972 10.52528467 -16.56277334 10.5122993 -14.53295207 10.49794465 C-13.4075314 10.49834484 -12.28211074 10.49874502 -11.12258641 10.49915733 C-7.22242516 9.8757017 -5.04916625 8.47338303 -2 6 C-0.57220726 2.89064982 -0.57220726 2.89064982 0 0 Z " fill="#ECF9FE" transform="translate(920,173)"/>
<path d="M0 0 C1.09570312 0.00902344 2.19140625 0.01804688 3.3203125 0.02734375 C4.16335938 0.03894531 5.00640625 0.05054688 5.875 0.0625 C5.875 1.7125 5.875 3.3625 5.875 5.0625 C5.24851562 5.11148438 4.62203125 5.16046875 3.9765625 5.2109375 C3.15929687 5.28570312 2.34203125 5.36046875 1.5 5.4375 C0.68789063 5.50710937 -0.12421875 5.57671875 -0.9609375 5.6484375 C-3.32834191 5.89142588 -3.32834191 5.89142588 -5.125 8.0625 C-5.125 12.0225 -5.125 15.9825 -5.125 20.0625 C5.435 20.0625 15.995 20.0625 26.875 20.0625 C26.875 18.7425 26.875 17.4225 26.875 16.0625 C25.64523437 16.02382812 25.64523437 16.02382812 24.390625 15.984375 C23.31296875 15.92765625 22.2353125 15.8709375 21.125 15.8125 C20.05765625 15.76609375 18.9903125 15.7196875 17.890625 15.671875 C14.2925363 14.94480008 13.07045777 13.96196442 10.875 11.0625 C10.3125 7.5625 10.3125 7.5625 10.875 4.0625 C13.06280473 1.51307465 14.78886428 0.21287196 18.16040039 -0.25390625 C20.84705323 -0.33125661 23.50164758 -0.2862027 26.1875 -0.1875 C27.58452148 -0.16042969 27.58452148 -0.16042969 29.00976562 -0.1328125 C31.29924197 -0.08584888 33.58658184 -0.02019475 35.875 0.0625 C35.545 1.7125 35.215 3.3625 34.875 5.0625 C26.955 5.5575 26.955 5.5575 18.875 6.0625 C18.545 7.3825 18.215 8.7025 17.875 10.0625 C18.61105469 10.02769531 19.34710937 9.99289063 20.10546875 9.95703125 C29.9758271 9.68321682 29.9758271 9.68321682 33.875 13.0625 C35.27957737 15.87165474 35.12395157 17.95060534 34.875 21.0625 C33.09515595 24.1984157 32.35191793 24.90352736 28.875 26.0625 C23.76623575 26.33881958 18.65801734 26.37586665 13.54248047 26.41259766 C11.85093434 26.42916552 10.15945847 26.4564669 8.46826172 26.49462891 C6.02274472 26.54948252 3.57886231 26.57128035 1.1328125 26.5859375 C0.38057404 26.60860687 -0.37166443 26.63127625 -1.146698 26.65463257 C-5.18241431 26.6384483 -6.90899445 26.23858255 -10.07861328 23.65478516 C-13.63543499 19.14913819 -13.51146654 15.7004067 -13.484375 10.05859375 C-12.94785181 5.58562326 -11.4580708 3.99877666 -8.125 1.0625 C-5.36047967 -0.31976016 -3.0788637 -0.03275387 0 0 Z " fill="#2D2D31" transform="translate(771.125,58.9375)"/>
<path d="M0 0 C1.58294782 -0.05437607 3.16644256 -0.09296271 4.75 -0.125 C5.63171875 -0.14820313 6.5134375 -0.17140625 7.421875 -0.1953125 C11.1801778 0.08940741 13.2387322 1.15716779 15.75 3.9375 C17.67346874 8.6499984 17.18308409 12.93467344 17 18 C20.96 18 24.92 18 29 18 C28.95359375 17.03578125 28.9071875 16.0715625 28.859375 15.078125 C28.80523438 13.18320313 28.80523438 13.18320313 28.75 11.25 C28.70359375 9.99703125 28.6571875 8.7440625 28.609375 7.453125 C29 4 29 4 30.6875 1.5625 C33.47055461 -0.3179423 34.92780702 -0.42485226 38.25 -0.25 C39.14203125 -0.21390625 40.0340625 -0.1778125 40.953125 -0.140625 C41.96632813 -0.07101563 41.96632813 -0.07101563 43 0 C43.495 1.485 43.495 1.485 44 3 C42 5 42 5 37 6 C36.67 9.96 36.34 13.92 36 18 C42.56594257 17.47604732 42.56594257 17.47604732 48 14 C48.99 14 49.98 14 51 14 C50.79514816 17.58490716 50.04887931 18.94528833 47.62451172 21.65893555 C43.2135345 25.15608319 38.51313206 24.52681213 33.1328125 24.26953125 C32.09808807 24.24026047 31.06336365 24.21098969 29.99728394 24.18083191 C26.70522371 24.08217425 23.41573561 23.94785098 20.125 23.8125 C17.88809691 23.73917749 15.65111607 23.66818747 13.4140625 23.59960938 C7.94151893 23.42675597 2.47064948 23.22463696 -3 23 C-3 21.35 -3 19.7 -3 18 C1.29 18 5.58 18 10 18 C9.67 14.04 9.34 10.08 9 6 C5.7 5.67 2.4 5.34 -1 5 C-0.67 3.35 -0.34 1.7 0 0 Z " fill="#2D2D31" transform="translate(812,59)"/>
<path d="M0 0 C1.6396875 -0.02416992 1.6396875 -0.02416992 3.3125 -0.04882812 C4.364375 -0.04947266 5.41625 -0.05011719 6.5 -0.05078125 C7.4590625 -0.05376221 8.418125 -0.05674316 9.40625 -0.05981445 C12.4935678 0.38334816 13.85426464 1.05392964 16 3.3125 C16.45410156 5.48901367 16.45410156 5.48901367 16.390625 7.98046875 C16.37773438 8.87314453 16.36484375 9.76582031 16.3515625 10.68554688 C16.31804688 11.61431641 16.28453125 12.54308594 16.25 13.5 C16.23195313 14.44037109 16.21390625 15.38074219 16.1953125 16.34960938 C16.1481655 18.67159889 16.08238231 20.9915369 16 23.3125 C13.69 23.3125 11.38 23.3125 9 23.3125 C9 17.7025 9 12.0925 9 6.3125 C7.35 6.3125 5.7 6.3125 4 6.3125 C4 11.9225 4 17.5325 4 23.3125 C1.69 23.3125 -0.62 23.3125 -3 23.3125 C-3.33 18.0325 -3.66 12.7525 -4 7.3125 C-5.65 6.9825 -7.3 6.6525 -9 6.3125 C-9 11.9225 -9 17.5325 -9 23.3125 C-11.31 23.3125 -13.62 23.3125 -16 23.3125 C-16 16.3825 -16 9.4525 -16 2.3125 C-10.58171226 -0.39664387 -5.97045407 -0.01760157 0 0 Z " fill="#36373A" transform="translate(774,101.6875)"/>
<path d="M0 0 C0.0740719 4.37821909 0.12856375 8.75610782 0.16479492 13.13476562 C0.179896 14.62473909 0.20037858 16.11466801 0.22631836 17.60449219 C0.26264584 19.7442523 0.27971221 21.88342566 0.29296875 24.0234375 C0.3086792 25.31169434 0.32438965 26.59995117 0.34057617 27.92724609 C0.22818604 28.94125488 0.1157959 29.95526367 0 31 C-4.65813763 34.10542508 -9.54831164 33.74307763 -15 33 C-17.97361086 30.78436838 -19.36959793 29.26080415 -21 26 C-21.53118252 21.08003072 -21.75105553 17.22672403 -19.125 12.9375 C-15.14215542 9.30608289 -12.20749195 9.91600819 -7 10 C-7 7.03 -7 4.06 -7 1 C-4 0 -4 0 0 0 Z " fill="#2E2F32" transform="translate(839,92)"/>
<path d="M0 0 C28.05 0 56.1 0 85 0 C85 9.57 85 19.14 85 29 C56.95 29 28.9 29 0 29 C0 19.43 0 9.86 0 0 Z M2 2 C2 9.92 2 17.84 2 26 C5.99498313 26.99874578 9.54253592 27.13400014 13.61425781 27.11352539 C14.75630173 27.11374443 14.75630173 27.11374443 15.92141724 27.1139679 C18.43201571 27.11327255 20.94253952 27.10549787 23.453125 27.09765625 C25.19618692 27.09579073 26.93924937 27.09436746 28.68231201 27.09336853 C33.26572116 27.08955394 37.84909851 27.07973267 42.43249512 27.06866455 C47.11124237 27.0584277 51.78999477 27.05386604 56.46875 27.04882812 C65.64584953 27.03810946 74.82291715 27.0205212 84 27 C84 18.75 84 10.5 84 2 C56.94 2 29.88 2 2 2 Z " fill="#88B14F" transform="translate(663,97)"/>
<path d="M0 0 C2.97 0 5.94 0 9 0 C9.0700933 22.43548088 9.12298978 44.8709437 9.15543652 67.30651188 C9.17090279 77.72382837 9.19198779 88.1410768 9.22631836 98.55834961 C9.25622797 107.63845997 9.27557674 116.71852104 9.28226548 125.79867929 C9.28617508 130.60617991 9.29535829 135.41353953 9.31719017 140.22099495 C9.33757995 144.7476479 9.34382875 149.274102 9.33932304 153.80079651 C9.34014713 155.4604138 9.34609795 157.12003787 9.35761642 158.7796154 C9.37259986 161.05014242 9.36893275 163.31992416 9.36076355 165.59046936 C9.36352893 166.8597783 9.36629431 168.12908724 9.36914349 169.43686008 C8.93452568 173.6319878 7.92840678 176.26455803 6 180 C3.8125 181.4375 3.8125 181.4375 2 182 C2.649296 181.1564263 3.298592 180.31285259 3.96756363 179.44371605 C6.28138838 175.52322164 6.50549789 173.41095421 6.51898193 168.90054321 C6.52648319 168.20937987 6.53398444 167.51821652 6.541713 166.80610883 C6.56192493 164.50275377 6.55390093 162.20038922 6.54589844 159.89697266 C6.55463704 158.24092641 6.56512383 156.58488861 6.57722473 154.92886353 C6.6050703 150.44169135 6.60848974 145.95479488 6.60750484 141.46754885 C6.61063518 136.77496456 6.63625593 132.08250422 6.65948486 127.38998413 C6.7000391 118.50786099 6.72038423 109.62581125 6.73345876 100.74360979 C6.74933074 90.62993338 6.78774722 80.51638186 6.82805204 70.40277791 C6.91044311 49.60189314 6.96454019 28.80101424 7 8 C6.34 8 5.68 8 5 8 C4.67 8.66 4.34 9.32 4 10 C4.0825 9.278125 4.165 8.55625 4.25 7.8125 C3.92573441 4.16451206 2.42680413 2.65431702 0 0 Z " fill="#80A0BB" transform="translate(912,0)"/>
<path d="M0 0 C2.97 0 5.94 0 9 0 C7.7934375 0.86625 7.7934375 0.86625 6.5625 1.75 C3.79481006 4.18016677 3.52626418 4.55400825 3 8 C2.90163409 10.27125796 2.8607442 12.54519975 2.85282898 14.818573 C2.84915229 15.5037941 2.8454756 16.1890152 2.8416875 16.89500058 C2.83067743 19.19026192 2.82681143 21.48547795 2.82299805 23.78076172 C2.81673152 25.42676944 2.81008455 27.07277575 2.80308533 28.71878052 C2.78207034 34.1224062 2.77168743 39.5260321 2.76171875 44.9296875 C2.75767067 46.79061015 2.75355373 48.65153264 2.74936867 50.51245499 C2.73032504 59.25298282 2.71609055 67.99350223 2.7077567 76.73404682 C2.69797776 86.82331601 2.67163767 96.91236619 2.63125581 107.00155818 C2.60110846 114.80124533 2.58628926 122.60086962 2.58297569 130.4006139 C2.58062422 135.05883006 2.57165082 139.71681201 2.54651451 144.37496567 C2.52325197 148.7564531 2.51899314 153.13755178 2.52927589 157.51908493 C2.52977176 159.12591341 2.52343632 160.73276093 2.50971985 162.33953094 C2.49202032 164.53597288 2.49909579 166.73101656 2.51225281 168.92745972 C2.50986445 170.15562346 2.5074761 171.38378719 2.50501537 172.64916801 C3.09321915 176.63105333 4.56746008 178.84066765 7 182 C4.01714246 180.97142843 3.06306008 180.10266628 1.38582897 177.372015 C-0.18991468 173.53789741 -0.36971683 170.8091739 -0.36076355 166.67276001 C-0.36332682 165.95709535 -0.3658901 165.24143069 -0.36853105 164.50407922 C-0.373453 162.11788379 -0.35700292 159.73232806 -0.34057617 157.34619141 C-0.33972955 155.63104263 -0.34020572 153.91589277 -0.34190369 152.20074463 C-0.34276371 147.55239228 -0.32513679 142.90427261 -0.30418181 138.25597429 C-0.28541621 133.39530145 -0.28366466 128.53462316 -0.28010559 123.67391968 C-0.27078479 114.4729998 -0.2461705 105.27218697 -0.21605712 96.07131422 C-0.18251423 85.5949687 -0.16602737 75.11861804 -0.15097082 64.64223218 C-0.11962101 43.09476172 -0.06685979 21.54738761 0 0 Z " fill="#79A1BF" transform="translate(0,0)"/>
<path d="M0 0 C0.83402344 -0.01675781 1.66804687 -0.03351563 2.52734375 -0.05078125 C5.95196093 0.43995742 7.53247863 0.8811674 10.0625 3.3125 C10.69381772 6.72177265 10.53071012 10.0480264 10.375 13.5 C10.35244141 14.44037109 10.32988281 15.38074219 10.30664062 16.34960938 C10.24769227 18.67217473 10.16547785 20.99153776 10.0625 23.3125 C7.29108283 23.39339542 4.52202181 23.45294062 1.75 23.5 C0.96431641 23.52513672 0.17863281 23.55027344 -0.63085938 23.57617188 C-1.38818359 23.58583984 -2.14550781 23.59550781 -2.92578125 23.60546875 C-3.62227783 23.6211792 -4.31877441 23.63688965 -5.03637695 23.65307617 C-7.55597521 23.20170343 -8.40985076 22.33645321 -9.9375 20.3125 C-10.4375 16.875 -10.4375 16.875 -9.9375 13.3125 C-8 10.875 -8 10.875 -4.9375 9.3125 C-1.90469442 9.00313354 1.02669621 9.07439774 4.0625 9.3125 C3.4025 8.3225 2.7425 7.3325 2.0625 6.3125 C-1.5675 6.6425 -5.1975 6.9725 -8.9375 7.3125 C-8.9375 5.6625 -8.9375 4.0125 -8.9375 2.3125 C-5.8558742 0.52615341 -3.55267818 0.01642224 0 0 Z " fill="#28292C" transform="translate(803.9375,101.6875)"/>
<path d="M0 0 C1.2684375 -0.00773437 1.2684375 -0.00773437 2.5625 -0.015625 C5.17224437 0.26877022 6.79095359 0.84962237 9 2.25 C10.17426264 4.59852528 10.11508173 5.98774065 10.09765625 8.6015625 C10.09443359 9.45234375 10.09121094 10.303125 10.08789062 11.1796875 C10.07951172 12.06914063 10.07113281 12.95859375 10.0625 13.875 C10.05798828 14.7721875 10.05347656 15.669375 10.04882812 16.59375 C10.03702591 18.81256648 10.02056155 21.03125018 10 23.25 C7.41603321 23.33112454 4.83462432 23.39054748 2.25 23.4375 C1.52039063 23.46263672 0.79078125 23.48777344 0.0390625 23.51367188 C-3.18322563 23.55761217 -5.59338983 23.45330509 -8.5 22 C-11.12627741 18.93600969 -10.25525184 16.14259049 -10 12.25 C-5.03006806 9.81574762 -1.65394631 8.90384002 4 9.25 C3.34 8.26 2.68 7.27 2 6.25 C-1.63 6.58 -5.26 6.91 -9 7.25 C-9 5.6 -9 3.95 -9 2.25 C-5.88610696 0.43356239 -3.59222291 -0.0219038 0 0 Z " fill="#28292C" transform="translate(853,101.75)"/>
<path d="M0 0 C4.07510438 -0.0247345 8.15017964 -0.04287637 12.2253418 -0.05493164 C13.61141725 -0.05995777 14.99748741 -0.06677966 16.38354492 -0.07543945 C18.37676715 -0.08758018 20.37002819 -0.09271021 22.36328125 -0.09765625 C23.56251221 -0.10289307 24.76174316 -0.10812988 25.99731445 -0.11352539 C29 0 29 0 32 1 C32.84810774 3.5081051 33.49579092 5.86455384 34.0625 8.4375 C34.31519653 9.52369629 34.31519653 9.52369629 34.57299805 10.63183594 C35.0614625 12.75189914 35.53143644 14.87546676 36 17 C36.24234375 18.03769531 36.4846875 19.07539062 36.734375 20.14453125 C38.25416956 26.99387565 38.25416956 26.99387565 37 31 C36.6596875 30.3709375 36.319375 29.741875 35.96875 29.09375 C27.46057918 14.06868238 15.40662065 7.80982292 0 1 C0 0.67 0 0.34 0 0 Z " fill="#E4AA46" transform="translate(236,61)"/>
<path d="M0 0 C28.05 0 56.1 0 85 0 C85 9.24 85 18.48 85 28 C56.95 28 28.9 28 0 28 C0 18.76 0 9.52 0 0 Z M2 1 C2 9.25 2 17.5 2 26 C29.06 26 56.12 26 84 26 C84 17.75 84 9.5 84 1 C56.94 1 29.88 1 2 1 Z " fill="#3993BF" transform="translate(663,59)"/>
<path d="M0 0 C28.38 0 56.76 0 86 0 C86 0.33 86 0.66 86 1 C57.95 1 29.9 1 1 1 C1 10.57 1 20.14 1 30 C29.05 30 57.1 30 86 30 C86 30.66 86 31.32 86 32 C74.80426756 32.02312269 63.60854076 32.04091471 52.41278934 32.05181217 C47.21471885 32.05704116 42.01666464 32.0641391 36.81860352 32.07543945 C31.80657732 32.08626776 26.79456682 32.09227671 21.78252983 32.09487724 C19.86587718 32.09673159 17.94922543 32.1003524 16.03257942 32.10573006 C13.35771928 32.11293975 10.68292486 32.11399097 8.00805664 32.11352539 C7.2074884 32.11712067 6.40692017 32.12071594 5.58209229 32.12442017 C0.11405216 32.11405216 0.11405216 32.11405216 -1 31 C-1.10005826 28.87819862 -1.13081087 26.75306461 -1.1328125 24.62890625 C-1.13410156 23.33275391 -1.13539063 22.03660156 -1.13671875 20.70117188 C-1.13462402 20.0223999 -1.1325293 19.34362793 -1.13037109 18.64428711 C-1.1250313 16.57463211 -1.13031193 14.505195 -1.13671875 12.43554688 C-1.13542969 11.13810547 -1.13414062 9.84066406 -1.1328125 8.50390625 C-1.13168457 7.30580322 -1.13055664 6.1077002 -1.12939453 4.87329102 C-1 2 -1 2 0 0 Z " fill="#D9F5FC" transform="translate(662,57)"/>
<path d="M0 0 C2.93774463 -0.05390357 5.87450232 -0.0936255 8.8125 -0.125 C10.06256836 -0.15013672 10.06256836 -0.15013672 11.33789062 -0.17578125 C12.14033203 -0.18222656 12.94277344 -0.18867187 13.76953125 -0.1953125 C14.50792236 -0.20578613 15.24631348 -0.21625977 16.00708008 -0.22705078 C18 0 18 0 21 2 C21.66 1.67 22.32 1.34 23 1 C23.22448608 6.86158094 22.9009024 12.16718363 21.62890625 17.88671875 C20.80472018 21.96669574 20.22046405 26.06880705 19.625 30.1875 C17.97517845 41.4977747 16.00448313 52.74794341 14 64 C13.67 64 13.34 64 13 64 C12.77205735 57.45298067 13.11599612 51.40715733 14.42578125 44.98828125 C15.3306942 40.27904039 15.91133592 35.52684527 16.53515625 30.7734375 C17 28 17 28 18 27 C18.07226502 25.14712498 18.0838122 23.29166122 18.0625 21.4375 C18.05347656 20.42558594 18.04445313 19.41367188 18.03515625 18.37109375 C18.02355469 17.58863281 18.01195312 16.80617188 18 16 C17.01 16.66 16.02 17.32 15 18 C14.67 18 14.34 18 14 18 C13.8453125 18.8971875 13.8453125 18.8971875 13.6875 19.8125 C12.90175967 22.31258286 12.03081147 23.37535082 10 25 C9.34 25 8.68 25 8 25 C10.58427106 16.81647497 13.77679843 8.95056387 17 1 C11.39 1 5.78 1 0 1 C0 0.67 0 0.34 0 0 Z " fill="#DAE8F2" transform="translate(292,60)"/>
<path d="M0 0 C2.02237052 0.95394836 4.0282696 1.94535351 6 3 C6 3.33 6 3.66 6 4 C4.35 4 2.7 4 1 4 C1 3.34 1 2.68 1 2 C-4.40601295 2.25158603 -4.40601295 2.25158603 -9.0625 4.5625 C-11.94923992 6.70427478 -14.51747318 6.20091501 -18 6 C-18 6.66 -18 7.32 -18 8 C-17.34 8 -16.68 8 -16 8 C-16 8.99 -16 9.98 -16 11 C-15.01 11.33 -14.02 11.66 -13 12 C-13 12.99 -13 13.98 -13 15 C-12.01 15 -11.02 15 -10 15 C-10 15.99 -10 16.98 -10 18 C-11.32 18 -12.64 18 -14 18 C-13.67 19.65 -13.34 21.3 -13 23 C-12.01 23.33 -11.02 23.66 -10 24 C-10 24.66 -10 25.32 -10 26 C-11.66611905 26.042721 -13.33382885 26.04063832 -15 26 C-16 25 -16 25 -16.0625 21.4375 C-16.041875 20.303125 -16.02125 19.16875 -16 18 C-18.97 18.33 -21.94 18.66 -25 19 C-22.525 19.99 -22.525 19.99 -20 21 C-20.33 22.65 -20.66 24.3 -21 26 C-23.64 26 -26.28 26 -29 26 C-28.67 25.01 -28.34 24.02 -28 23 C-26.35 23 -24.7 23 -23 23 C-23.804375 22.7525 -24.60875 22.505 -25.4375 22.25 C-28 21 -28 21 -28.9375 19 C-28.958125 18.34 -28.97875 17.68 -29 17 C-26.4345406 14.4345406 -24.52313332 14.45953913 -21 14 C-21 12.02 -21 10.04 -21 8 C-24.96 7.67 -28.92 7.34 -33 7 C-33 6.67 -33 6.34 -33 6 C-32.18917969 5.97421875 -31.37835937 5.9484375 -30.54296875 5.921875 C-21.91562911 5.47996238 -14.5133866 3.91122764 -6.83984375 -0.140625 C-4.18812814 -1.37921828 -2.76713254 -0.8564934 0 0 Z " fill="#F9CFD3" transform="translate(553,115)"/>
<path d="M0 0 C0.33 0 0.66 0 1 0 C1 1.98 1 3.96 1 6 C0.24074219 6.13277344 -0.51851563 6.26554687 -1.30078125 6.40234375 C-2.29464844 6.57894531 -3.28851563 6.75554687 -4.3125 6.9375 C-5.79169922 7.19853516 -5.79169922 7.19853516 -7.30078125 7.46484375 C-10.08189213 7.95746847 -10.08189213 7.95746847 -13 9 C-13.33 10.65 -13.66 12.3 -14 14 C-10.80097361 14.08886184 -8.07322544 13.91058531 -5 13 C-4.87625 13.804375 -4.7525 14.60875 -4.625 15.4375 C-4.41875 16.283125 -4.2125 17.12875 -4 18 C-3.34 18.33 -2.68 18.66 -2 19 C-1.59270772 21.32156597 -1.25561323 23.6568787 -1 26 C-1.45375 25.29875 -1.9075 24.5975 -2.375 23.875 C-5.40345509 20.55812061 -8.51225067 18.76952298 -12.3828125 16.55859375 C-16.14169351 14.32009596 -19.56719106 11.70405621 -23 9 C-22.6875 6.625 -22.6875 6.625 -22 4 C-17.33096244 0.88730829 -12.47152272 1.51348574 -7 2 C-4.38538251 2.75388138 -2.40335617 3.68907845 0 5 C0 3.35 0 1.7 0 0 Z " fill="#E3EDF3" transform="translate(379,71)"/>
<path d="M0 0 C26.73 0 53.46 0 81 0 C81 0.33 81 0.66 81 1 C54.6 1 28.2 1 1 1 C1.33 9.25 1.66 17.5 2 26 C5.60698305 27.20232768 8.9275757 27.1759955 12.68432617 27.20532227 C13.85541176 27.22017166 13.85541176 27.22017166 15.05015564 27.23532104 C17.63106248 27.26691177 20.21198773 27.29168388 22.79296875 27.31640625 C24.58230569 27.33697787 26.3716378 27.3579744 28.16096497 27.37937927 C32.87092166 27.43457842 37.58092206 27.48399723 42.29095459 27.53222656 C47.09700409 27.58245731 51.90299012 27.63813517 56.70898438 27.69335938 C66.13926869 27.80091458 75.56960812 27.90236544 85 28 C85 28.33 85 28.66 85 29 C56.95 29 28.9 29 0 29 C0 19.43 0 9.86 0 0 Z " fill="#9FBC77" transform="translate(663,97)"/>
<path d="M0 0 C0.79921875 0.01804687 1.5984375 0.03609375 2.421875 0.0546875 C3.02515625 0.07789062 3.6284375 0.10109375 4.25 0.125 C4.25 1.115 4.25 2.105 4.25 3.125 C4.91 3.455 5.57 3.785 6.25 4.125 C5.0625 5.6875 5.0625 5.6875 3.25 7.125 C1.6 6.795 -0.05 6.465 -1.75 6.125 C-1.75 11.735 -1.75 17.345 -1.75 23.125 C-4.06 23.125 -6.37 23.125 -8.75 23.125 C-8.75 16.195 -8.75 9.265 -8.75 2.125 C-5.00631258 0.25315629 -3.9099209 -0.11499767 0 0 Z " fill="#303135" transform="translate(766.75,101.875)"/>
<path d="M0 0 C0.93134766 0.01804688 1.86269531 0.03609375 2.82226562 0.0546875 C5.11174197 0.10165112 7.39908184 0.16730525 9.6875 0.25 C9.3575 1.9 9.0275 3.55 8.6875 5.25 C0.7675 5.745 0.7675 5.745 -7.3125 6.25 C-7.6425 7.57 -7.9725 8.89 -8.3125 10.25 C-4.6825 10.25 -1.0525 10.25 2.6875 10.25 C2.6875 10.58 2.6875 10.91 2.6875 11.25 C0.0475 11.25 -2.5925 11.25 -5.3125 11.25 C-5.6425 12.57 -5.9725 13.89 -6.3125 15.25 C-9.6875 14.9375 -9.6875 14.9375 -13.3125 14.25 C-15.80086965 10.51744552 -15.85476552 8.66559065 -15.3125 4.25 C-10.96969408 -0.84063349 -6.17675753 -0.22699038 0 0 Z " fill="#2D2E31" transform="translate(797.3125,58.75)"/>
<path d="M0 0 C2.70502403 0.87730509 4.68400006 1.71668971 6.8125 3.625 C8.5799191 7.15983819 8.19629067 10.07418669 8 14 C2.60931587 17.59378942 -0.53673535 18.45356243 -7 18 C-7 14.04 -7 10.08 -7 6 C-4.69 5.01 -2.38 4.02 0 3 C0 2.01 0 1.02 0 0 Z " fill="#343538" transform="translate(855,59)"/>
<path d="M0 0 C0.625 1.8125 0.625 1.8125 1 4 C0.01 5.485 0.01 5.485 -1 7 C-1.16699232 10.12521833 -1.16699232 10.12521833 -1 13 C-1.66 13 -2.32 13 -3 13 C-3 65.8 -3 118.6 -3 173 C-3.33 173 -3.66 173 -4 173 C-4.09341075 151.18191578 -4.16396325 129.36386449 -4.20724869 107.54562092 C-4.22788042 97.41519298 -4.25601271 87.28488924 -4.30175781 77.15454102 C-4.34160684 68.32568616 -4.36742837 59.49692123 -4.37635398 50.66797894 C-4.381572 45.9923945 -4.39384894 41.31706736 -4.42292023 36.64156532 C-4.45005879 32.24127462 -4.45844817 27.84134736 -4.45243073 23.44098091 C-4.45353166 21.82566605 -4.46149498 20.21033911 -4.4768219 18.59509659 C-4.49672637 16.38935179 -4.4919388 14.18497885 -4.48101807 11.97920227 C-4.48470524 10.74492146 -4.48839241 9.51064066 -4.49219131 8.23895741 C-3.912808 4.42621666 -2.63035447 2.75568555 0 0 Z " fill="#E4EFF9" transform="translate(6,3)"/>
<path d="M0 0 C2.6881249 -0.08164159 5.373723 -0.14079668 8.0625 -0.1875 C8.81466797 -0.21263672 9.56683594 -0.23777344 10.34179688 -0.26367188 C15.70905934 -0.33337658 19.17202927 0.68257405 24 3 C26.79340157 3.25390222 26.79340157 3.25390222 29 3 C29 2.34 29 1.68 29 1 C31.375 0.375 31.375 0.375 34 0 C34.66 0.66 35.32 1.32 36 2 C38.85607714 2.1394051 38.85607714 2.1394051 40.9375 1.4375 C43.29664922 0.93707441 44.7285156 1.26988002 47 2 C47 1.34 47 0.68 47 0 C49.62527189 -0.05382106 52.24944713 -0.09358313 54.875 -0.125 C55.62136719 -0.14175781 56.36773438 -0.15851562 57.13671875 -0.17578125 C59.09194461 -0.1933959 61.04742021 -0.10320189 63 0 C63.99 0.99 63.99 0.99 65 2 C63.94941406 2.03738281 62.89882813 2.07476562 61.81640625 2.11328125 C49.37001133 2.47228541 49.37001133 2.47228541 38.10546875 7.296875 C35.96793817 8.70738398 34.53635761 9.55889433 32 10 C28.65416124 8.84298737 25.78887956 7.33521332 22.734375 5.55078125 C19.11727218 3.49936722 16.00766294 2.90192152 11.890625 2.68359375 C11.13652344 2.64169922 10.38242187 2.59980469 9.60546875 2.55664062 C8.43951172 2.49766602 8.43951172 2.49766602 7.25 2.4375 C6.06083984 2.37272461 6.06083984 2.37272461 4.84765625 2.30664062 C2.89862185 2.20097009 0.94933252 2.10002034 -1 2 C-0.67 1.34 -0.34 0.68 0 0 Z " fill="#F1E9E3" transform="translate(517,41)"/>
<path d="M0 0 C0 0.33 0 0.66 0 1 C-2.31 1.66 -4.62 2.32 -7 3 C-5.87465895 4.35618499 -5.87465895 4.35618499 -2.9375 4.0625 C-1.968125 4.041875 -0.99875 4.02125 0 4 C0.20086443 7.71599191 0.1519437 8.77208445 -2 12 C-1.01 12.66 -0.02 13.32 1 14 C-0.7492214 14.08142927 -2.49954542 14.13938541 -4.25 14.1875 C-5.71179688 14.23970703 -5.71179688 14.23970703 -7.203125 14.29296875 C-10.44315607 13.95358002 -11.76836113 13.35795805 -14 11 C-14.52799676 8.23857697 -14.18598981 5.83634455 -14 3 C-9.03006806 0.56574762 -5.65394631 -0.34615998 0 0 Z " fill="#363739" transform="translate(857,111)"/>
<path d="M0 0 C0 0.33 0 0.66 0 1 C-1.98 1 -3.96 1 -6 1 C-5.67 1.66 -5.34 2.32 -5 3 C-2.47266765 3.65555119 -2.47266765 3.65555119 0 4 C0.36923077 8.55384615 0.36923077 8.55384615 -1.5 10.8125 C-1.995 11.204375 -2.49 11.59625 -3 12 C-1.68 12.66 -0.36 13.32 1 14 C-0.93681161 14.08107583 -2.8745934 14.13922475 -4.8125 14.1875 C-5.89144531 14.22230469 -6.97039063 14.25710937 -8.08203125 14.29296875 C-11 14 -11 14 -12.85546875 12.703125 C-14.83048887 9.76418721 -14.4787943 7.41140938 -14 4 C-10.12661003 -0.87297448 -5.72927895 -0.44935521 0 0 Z " fill="#3D3E41" transform="translate(808,111)"/>
<path d="M0 0 C2.60695226 2.60695226 2.81572413 4.66956735 3.625 8.25 C3.88539063 9.36890625 4.14578125 10.4878125 4.4140625 11.640625 C5 15 5 15 5 21 C1.04 21 -2.92 21 -7 21 C-6.33577702 17.67888508 -5.76292144 15.08168801 -4.58984375 12.01171875 C-4.32236328 11.30595703 -4.05488281 10.60019531 -3.77929688 9.87304688 C-3.50150391 9.15181641 -3.22371094 8.43058594 -2.9375 7.6875 C-2.51500977 6.57665039 -2.51500977 6.57665039 -2.08398438 5.44335938 C-1.39281425 3.62757345 -0.69688311 1.81360101 0 0 Z " fill="#ECEFF1" transform="translate(410,80)"/>
<path d="M0 0 C0.33 0 0.66 0 1 0 C1 3.96 1 7.92 1 12 C7.56594257 11.47604732 7.56594257 11.47604732 13 8 C13.99 8 14.98 8 16 8 C15.78931408 11.68700366 14.9954447 13.00512471 12.5 15.8125 C8.56484859 18.83008005 4.75067409 18.52502993 0 18 C-2.0079077 17.71818839 -4.0137698 17.40743184 -6 17 C-6.25 14.6875 -6.25 14.6875 -6 12 C-3.95575462 10.02389614 -2.8823175 9 0 9 C0 6.03 0 3.06 0 0 Z " fill="#333437" transform="translate(847,65)"/>
<path d="M0 0 C1.77007714 -0.08114106 3.54122098 -0.13925505 5.3125 -0.1875 C6.29863281 -0.22230469 7.28476562 -0.25710937 8.30078125 -0.29296875 C11 0 11 0 12.83984375 1.328125 C14.97115033 4.39950284 14.16588415 7.77245731 13.6875 11.3125 C13.460625 11.869375 13.23375 12.42625 13 13 C12.01 13.33 11.02 13.66 10 14 C7.51953125 12.55859375 7.51953125 12.55859375 4.8125 10.4375 C3.91144531 9.75558594 3.01039063 9.07367188 2.08203125 8.37109375 C0 6 0 6 -0.30078125 2.72265625 C-0.20152344 1.82417969 -0.10226563 0.92570312 0 0 Z " fill="#F8A61B" transform="translate(254,63)"/>
<path d="M0 0 C4.32328804 -0.0744013 8.64623255 -0.12871968 12.9699707 -0.16479492 C14.43943782 -0.17984066 15.90886034 -0.20028238 17.37817383 -0.22631836 C19.4957177 -0.26288955 21.61266565 -0.27976801 23.73046875 -0.29296875 C25.63928833 -0.31653442 25.63928833 -0.31653442 27.58666992 -0.34057617 C31.24387591 0.02433352 33.11022215 0.77097303 36 3 C36.890625 5.2265625 36.890625 5.2265625 37.25 7.625 C37.53069452 10.60257495 37.53069452 10.60257495 39 13 C39.07205511 14.68608966 39.08386068 16.37500659 39.0625 18.0625 C39.05347656 18.98160156 39.04445313 19.90070313 39.03515625 20.84765625 C39.02355469 21.55792969 39.01195312 22.26820312 39 23 C36.69767924 19.19616571 36.12178518 15.06031539 35.375 10.75 C34.694375 6.91375 34.694375 6.91375 34 3 C23.77 3 13.54 3 3 3 C5.475 3.99 5.475 3.99 8 5 C8 5.33 8 5.66 8 6 C2.375 6.25 2.375 6.25 -1 4 C-0.67 2.68 -0.34 1.36 0 0 Z " fill="#F8ECD6" transform="translate(234,59)"/>
<path d="M0 0 C0.66 0 1.32 0 2 0 C2 4.62 2 9.24 2 14 C-4.25742574 15.32368621 -4.25742574 15.32368621 -7.4375 13.9375 C-9 12 -9 12 -9.4375 9 C-9 6 -9 6 -7.875 4.0625 C-5.07329973 2.47486985 -3.03014356 3.25929824 0 4 C0 2.68 0 1.36 0 0 Z " fill="#1B1B1B" transform="translate(605,127)"/>
<path d="M0 0 C11.77777778 0 11.77777778 0 16 1 C17 2 17 2 17.09765625 4.06640625 C17.08605469 4.89011719 17.07445313 5.71382812 17.0625 6.5625 C17.05347656 7.38878906 17.04445313 8.21507812 17.03515625 9.06640625 C17.02355469 9.70449219 17.01195313 10.34257812 17 11 C16.01 11 15.02 11 14 11 C14 8.36 14 5.72 14 3 C12.68 3 11.36 3 10 3 C10 5.64 10 8.28 10 11 C9.01 11 8.02 11 7 11 C7 8.36 7 5.72 7 3 C5.68 3 4.36 3 3 3 C3 5.64 3 8.28 3 11 C2.01 11 1.02 11 0 11 C0 7.37 0 3.74 0 0 Z " fill="#282828" transform="translate(78,130)"/>
<path d="M0 0 C11.88888889 0 11.88888889 0 16 1 C17 2 17 2 17.09765625 4.06640625 C17.08605469 4.89011719 17.07445312 5.71382812 17.0625 6.5625 C17.05347656 7.38878906 17.04445313 8.21507812 17.03515625 9.06640625 C17.02355469 9.70449219 17.01195312 10.34257812 17 11 C16.01 11 15.02 11 14 11 C14 8.36 14 5.72 14 3 C13.01 3.33 12.02 3.66 11 4 C10.67 6.31 10.34 8.62 10 11 C9.01 11 8.02 11 7 11 C7 8.36 7 5.72 7 3 C5.68 3 4.36 3 3 3 C3 5.64 3 8.28 3 11 C2.01 11 1.02 11 0 11 C0 7.37 0 3.74 0 0 Z " fill="#262626" transform="translate(492,130)"/>
<path d="M0 0 C0 3.3 0 6.6 0 10 C-6.25742574 11.32368621 -6.25742574 11.32368621 -9.4375 9.9375 C-11 8 -11 8 -11.4375 5 C-11 2 -11 2 -10 0.0625 C-6.65791742 -1.71298137 -3.65183129 -0.65852695 0 0 Z " fill="#1D1D1D" transform="translate(522,131)"/>
<path d="M0 0 C1.875 1.875 1.875 1.875 2.1875 5.0625 C2.084375 5.990625 1.98125 6.91875 1.875 7.875 C0.555 7.215 -0.765 6.555 -2.125 5.875 C-2.455 6.535 -2.785 7.195 -3.125 7.875 C-3.50269531 7.37355469 -3.88039063 6.87210937 -4.26953125 6.35546875 C-6.08131232 4.60518818 -6.08131232 4.60518818 -8.82421875 4.80078125 C-9.81035156 4.92839844 -10.79648437 5.05601563 -11.8125 5.1875 C-12.80636719 5.30738281 -13.80023437 5.42726563 -14.82421875 5.55078125 C-15.58347656 5.65777344 -16.34273437 5.76476562 -17.125 5.875 C-17.125 4.225 -17.125 2.575 -17.125 0.875 C-11.75675023 -2.23684917 -5.75124046 -2.07044657 0 0 Z " fill="#313134" transform="translate(812.125,103.125)"/>
<path d="M0 0 C0 3.3 0 6.6 0 10 C-6.8359375 10.1953125 -6.8359375 10.1953125 -9 10 C-11 8 -11 8 -11.3125 5.0625 C-11 2 -11 2 -10 0.0625 C-6.65791742 -1.71298137 -3.65183129 -0.65852695 0 0 Z " fill="#111111" transform="translate(586,131)"/>
<path d="M0 0 C0 3.3 0 6.6 0 10 C-6.8359375 10.1953125 -6.8359375 10.1953125 -9 10 C-11 8 -11 8 -11.3125 5.0625 C-11 2 -11 2 -10 0.0625 C-6.65791742 -1.71298137 -3.65183129 -0.65852695 0 0 Z " fill="#232323" transform="translate(108,131)"/>
<path d="M0 0 C1.875 1.0625 1.875 1.0625 3 3 C2.8125 6.625 2.8125 6.625 2 10 C-0.76250036 11.38125018 -2.94731099 11.19079306 -6 11 C-8 9 -8 9 -8.3125 6.0625 C-8 3 -8 3 -6.8125 1.125 C-4.34492892 -0.40659584 -2.85480169 -0.42822025 0 0 Z " fill="#0C0C0C" transform="translate(161,130)"/>
<path d="M0 0 C1.37806401 4.13419204 -0.23749009 6.63944092 -1.89453125 10.44140625 C-2.20194748 11.16488754 -2.50936371 11.88836884 -2.82609558 12.6337738 C-3.47822203 14.16299212 -4.13503195 15.69022037 -4.79614258 17.21557617 C-5.80818015 19.55252481 -6.80462616 21.89565065 -7.79882812 24.24023438 C-8.43398455 25.72434867 -9.07002294 27.20808588 -9.70703125 28.69140625 C-10.00607864 29.39350723 -10.30512604 30.09560822 -10.61323547 30.81898499 C-11.83999992 33.63667381 -12.8065504 35.8065504 -15 38 C-15 35.69 -15 33.38 -15 31 C-15.99 31 -16.98 31 -18 31 C-17.525625 30.21625 -17.05125 29.4325 -16.5625 28.625 C-14.60263251 24.07810742 -14.28089128 19.90106856 -14 15 C-13.67 15 -13.34 15 -13 15 C-12.67 18.63 -12.34 22.26 -12 26 C-11.360625 24.7625 -10.72125 23.525 -10.0625 22.25 C-9.70285156 21.55390625 -9.34320313 20.8578125 -8.97265625 20.140625 C-8.04441818 18.09775567 -7.46833422 16.18884624 -7 14 C-6.34 14 -5.68 14 -5 14 C-5 12.35 -5 10.7 -5 9 C-4.34 9 -3.68 9 -3 9 C-2.87625 8.2575 -2.7525 7.515 -2.625 6.75 C-2.04513299 4.19858515 -1.26291261 2.2732427 0 0 Z " fill="#CCE2F2" transform="translate(392,84)"/>
<path d="M0 0 C3.375 -0.1875 3.375 -0.1875 7 0 C9 3 9 3 8.75 6.5625 C8 10 8 10 6 12 C4.02 12 2.04 12 0 12 C0 8.04 0 4.08 0 0 Z " fill="#E8E8EA" transform="translate(848,65)"/>
<path d="M0 0 C0.66 1.32 1.32 2.64 2 4 C3.65 3.67 5.3 3.34 7 3 C7 2.34 7 1.68 7 1 C11.455 0.505 11.455 0.505 16 0 C16.66 1.32 17.32 2.64 18 4 C17.39671875 4.03738281 16.7934375 4.07476562 16.171875 4.11328125 C9.90964454 4.46925516 9.90964454 4.46925516 5 8 C4.1957792 10.59855733 4.1957792 10.59855733 4 13 C3.67 12.34 3.34 11.68 3 11 C2.34 11 1.68 11 1 11 C1 13.31 1 15.62 1 18 C0.67 18 0.34 18 0 18 C0 12.06 0 6.12 0 0 Z " fill="#DEDFE0" transform="translate(790,107)"/>
<path d="M0 0 C0.99 0.66 1.98 1.32 3 2 C3.66319894 5.58327789 3.46291956 9.23769225 3.4375 12.875 C3.45748047 13.88175781 3.47746094 14.88851562 3.49804688 15.92578125 C3.49310844 23.36306827 3.49310844 23.36306827 1.03125 26.54296875 C0.3609375 27.02378906 -0.309375 27.50460938 -1 28 C-1.309375 28.804375 -1.61875 29.60875 -1.9375 30.4375 C-3.30580857 33.7375383 -5.39702545 35.60252344 -8 38 C-7.01 35.03 -6.02 32.06 -5 29 C-4.34 29 -3.68 29 -3 29 C-3 28.01 -3 27.02 -3 26 C-2.34 26 -1.68 26 -1 26 C-0.0197752 20.31160882 0.11948801 14.82705667 0.0625 9.0625 C0.05798828 8.18787109 0.05347656 7.31324219 0.04882812 6.41210938 C0.03714834 4.27470953 0.01921689 2.13734537 0 0 Z " fill="#2F8FDA" transform="translate(134,70)"/>
<path d="M0 0 C2 2 2 2 2.125 4.625 C2.08375 5.40875 2.0425 6.1925 2 7 C0.02 7.33 -1.96 7.66 -4 8 C-2.35 8 -0.7 8 1 8 C1 8.99 1 9.98 1 11 C-2.375 11.125 -2.375 11.125 -6 11 C-8 9 -8 9 -8.3125 6.0625 C-8 3 -8 3 -6.8125 1.125 C-4.38241919 -0.38332602 -2.80984248 -0.36023622 0 0 Z " fill="#111111" transform="translate(118,130)"/>
<path d="M0 0 C1.65 0.33 3.3 0.66 5 1 C5 4.96 5 8.92 5 13 C3.35 13 1.7 13 0 13 C-2 11 -2 11 -2.265625 8.90625 C-2.25789062 7.71515625 -2.25789062 7.71515625 -2.25 6.5 C-2.25515625 5.7059375 -2.2603125 4.911875 -2.265625 4.09375 C-2 2 -2 2 0 0 Z " fill="#E5E5E6" transform="translate(827,107)"/>
<path d="M0 0 C1.2684375 -0.02513672 1.2684375 -0.02513672 2.5625 -0.05078125 C5.45330535 0.38005993 6.82826275 1.40720274 9 3.3125 C8.38125 3.60125 7.7625 3.89 7.125 4.1875 C4.86674235 5.24970042 4.86674235 5.24970042 3 7.3125 C2.67 6.9825 2.34 6.6525 2 6.3125 C0.14227838 6.40234301 -1.71247985 6.55861861 -3.5625 6.75 C-4.57441406 6.85183594 -5.58632813 6.95367187 -6.62890625 7.05859375 C-7.41136719 7.14238281 -8.19382812 7.22617188 -9 7.3125 C-9 5.6625 -9 4.0125 -9 2.3125 C-5.89998878 0.51133608 -3.57517903 0.0163499 0 0 Z " fill="#303033" transform="translate(853,101.6875)"/>
<path d="M0 0 C2.4375 0.8125 2.4375 0.8125 4.4375 2.8125 C4.4375 4.1325 4.4375 5.4525 4.4375 6.8125 C2.1275 7.1425 -0.1825 7.4725 -2.5625 7.8125 C0.4075 8.3075 0.4075 8.3075 3.4375 8.8125 C3.4375 9.4725 3.4375 10.1325 3.4375 10.8125 C0.0625 10.9375 0.0625 10.9375 -3.5625 10.8125 C-5.5625 8.8125 -5.5625 8.8125 -5.875 5.875 C-5.5625 2.8125 -5.5625 2.8125 -4.375 0.875 C-2.5625 -0.1875 -2.5625 -0.1875 0 0 Z " fill="#090909" transform="translate(550.5625,130.1875)"/>
<path d="M0 0 C-0.33 0.66 -0.66 1.32 -1 2 C-2.32 2 -3.64 2 -5 2 C-5.13160522 1.06377808 -5.13160522 1.06377808 -5.26586914 0.10864258 C-5.79251281 -2.09913081 -5.79251281 -2.09913081 -7.60717773 -3.0402832 C-14.45839831 -5.2760599 -20.90118549 -5.34866057 -28.0625 -5.1875 C-29.21427734 -5.17396484 -30.36605469 -5.16042969 -31.55273438 -5.14648438 C-34.36898972 -5.11142725 -37.18423765 -5.06228856 -40 -5 C-30.64404934 -14.35595066 -8.74381227 -6.61693902 0 0 Z " fill="#1F9CCE" transform="translate(171,51)"/>
<path d="M0 0 C1.4540625 0.0309375 1.4540625 0.0309375 2.9375 0.0625 C3.2675 1.0525 3.5975 2.0425 3.9375 3.0625 C2.9475 3.5575 2.9475 3.5575 1.9375 4.0625 C2.9275 4.7225 3.9175 5.3825 4.9375 6.0625 C4.0625 9.9375 4.0625 9.9375 2.9375 11.0625 C0.60452567 11.10342937 -1.72955225 11.10491723 -4.0625 11.0625 C-3.7325 10.0725 -3.4025 9.0825 -3.0625 8.0625 C-1.4125 8.3925 0.2375 8.7225 1.9375 9.0625 C1.9375 8.4025 1.9375 7.7425 1.9375 7.0625 C1.133125 7.083125 0.32875 7.10375 -0.5 7.125 C-3.0625 7.0625 -3.0625 7.0625 -4.0625 6.0625 C-4.1875 3.5625 -4.1875 3.5625 -4.0625 1.0625 C-3.0625 0.0625 -3.0625 0.0625 0 0 Z " fill="#131313" transform="translate(127.0625,129.9375)"/>
<path d="M0 0 C0.33 0 0.66 0 1 0 C0.67 3.63 0.34 7.26 0 11 C-4.96570849 12.24142712 -7.15547062 11.37261666 -12 10 C-8.74013954 6.56856794 -5.53507956 3.51169319 -1 2 C-0.67 1.34 -0.34 0.68 0 0 Z " fill="#DDEAF4" transform="translate(377,113)"/>
<path d="M0 0 C3.625 0.375 3.625 0.375 7 1 C7 1.66 7 2.32 7 3 C5.35 3.33 3.7 3.66 2 4 C4.475 4.99 4.475 4.99 7 6 C6.67 7.65 6.34 9.3 6 11 C3.36 11 0.72 11 -2 11 C-1.67 10.01 -1.34 9.02 -1 8 C0.65 8 2.3 8 4 8 C3.195625 7.7525 2.39125 7.505 1.5625 7.25 C-1 6 -1 6 -1.9375 4 C-1.958125 3.34 -1.97875 2.68 -2 2 C-1.34 1.34 -0.68 0.68 0 0 Z " fill="#1A1A1A" transform="translate(526,130)"/>
<path d="M0 0 C1.32 0.66 2.64 1.32 4 2 C4.828125 4.6015625 4.828125 4.6015625 5.25 7.625 C5.39953125 8.62789062 5.5490625 9.63078125 5.703125 10.6640625 C5.80109375 11.43492188 5.8990625 12.20578125 6 13 C4.35 13.66 2.7 14.32 1 15 C1 15.66 1 16.32 1 17 C0.01 16.67 -0.98 16.34 -2 16 C-1.34 16 -0.68 16 0 16 C0 10.72 0 5.44 0 0 Z " fill="#CACBCD" transform="translate(814,109)"/>
<path d="M0 0 C0.33 0.66 0.66 1.32 1 2 C1.66 2 2.32 2 3 2 C3.05425013 4.87525669 3.09379277 7.74947646 3.125 10.625 C3.14175781 11.43324219 3.15851563 12.24148437 3.17578125 13.07421875 C3.2257616 19.22180199 2.48486176 23.77270735 -1 29 C-1.66 29 -2.32 29 -3 29 C-2.7834375 28.41476563 -2.566875 27.82953125 -2.34375 27.2265625 C0.59547537 18.16395094 0.2794033 9.4065777 0 0 Z " fill="#DCF5FA" transform="translate(184,71)"/>
<path d="M0 0 C-0.9977758 2.99332739 -1.7522025 3.94766315 -4 6 C-2.95012729 9.34050408 -2.01425283 10.98644243 0.5625 13.4375 C3.35042456 16.36839505 3.72342421 18.03574701 4 22 C3.34 22 2.68 22 2 22 C2 21.01 2 20.02 2 19 C1.01 18.67 0.02 18.34 -1 18 C-2.0625 15.6875 -2.0625 15.6875 -3 13 C-3.65213539 11.65949948 -4.31379969 10.32338632 -5 9 C-5.66 9 -6.32 9 -7 9 C-7.33 7.35 -7.66 5.7 -8 4 C-2.25 0 -2.25 0 0 0 Z " fill="#3A8AD8" transform="translate(130,46)"/>
<path d="M0 0 C0.83789062 -0.01611328 1.67578125 -0.03222656 2.5390625 -0.04882812 C7.63952489 -0.05283792 11.22573732 0.44250483 15.625 3.3125 C15.955 3.9725 16.285 4.6325 16.625 5.3125 C14.9234375 4.8175 14.9234375 4.8175 13.1875 4.3125 C8.4164938 3.24130275 3.80268369 3.12080904 -1.0625 3.125 C-1.78687256 3.12435547 -2.51124512 3.12371094 -3.25756836 3.12304688 C-7.39311926 3.16477701 -11.31784419 3.51384728 -15.375 4.3125 C-10.7519059 -0.3105941 -6.19091398 -0.02359342 0 0 Z " fill="#FCD0D3" transform="translate(97.375,40.6875)"/>
<path d="M0 0 C0.76699219 0.16242188 1.53398438 0.32484375 2.32421875 0.4921875 C7.17052648 1.16170929 11.92678516 1.14495527 16.8125 1.125 C17.77865234 1.12886719 18.74480469 1.13273437 19.74023438 1.13671875 C21.11598633 1.13478516 21.11598633 1.13478516 22.51953125 1.1328125 C23.35589111 1.13168457 24.19225098 1.13055664 25.05395508 1.12939453 C27.00533295 1.21421245 27.00533295 1.21421245 28 0 C29.99958364 -0.04080783 32.00045254 -0.04254356 34 0 C29.97327352 4.02672648 24.89143582 4.27142021 19.46484375 4.32226562 C18.69269531 4.31904297 17.92054687 4.31582031 17.125 4.3125 C15.97837891 4.33666992 15.97837891 4.33666992 14.80859375 4.36132812 C9.23820895 4.3660568 5.11290687 3.20705206 0 1 C0 0.67 0 0.34 0 0 Z " fill="#CD1C33" transform="translate(80,117)"/>
<path d="M0 0 C0.33 0 0.66 0 1 0 C1.33 8.58 1.66 17.16 2 26 C2.66 25.34 3.32 24.68 4 24 C5.23076923 30.4 5.23076923 30.4 4.0625 33.4375 C3.711875 33.953125 3.36125 34.46875 3 35 C2.34 35 1.68 35 1 35 C-0.18817968 31.26689567 -0.11362739 27.72508355 -0.09765625 23.828125 C-0.0962413 23.1457074 -0.09482635 22.46328979 -0.09336853 21.76019287 C-0.08779084 19.59008316 -0.07524254 17.4200783 -0.0625 15.25 C-0.05748211 13.77474108 -0.05291971 12.29948053 -0.04882812 10.82421875 C-0.03782875 7.21611202 -0.02057953 3.60806625 0 0 Z " fill="#D0CFD1" transform="translate(839,92)"/>
<path d="M0 0 C0.33 0 0.66 0 1 0 C1.70174756 3.24709194 2.38388069 6.49800252 3.0625 9.75 C3.26166016 10.67039062 3.46082031 11.59078125 3.66601562 12.5390625 C3.84970703 13.42851563 4.03339844 14.31796875 4.22265625 15.234375 C4.39547119 16.05131836 4.56828613 16.86826172 4.74633789 17.70996094 C5.01129884 20.10200494 4.73312703 21.72525071 4 24 C2.99193149 22.40089132 1.99379615 20.79551738 1 19.1875 C0.443125 18.29417969 -0.11375 17.40085937 -0.6875 16.48046875 C-2 14 -2 14 -2 11 C-1.34 10.34 -0.68 9.68 0 9 C0.24253813 6.78927023 0.24253813 6.78927023 0.125 4.375 C0.10695313 3.55773437 0.08890625 2.74046875 0.0703125 1.8984375 C0.04710937 1.27195312 0.02390625 0.64546875 0 0 Z " fill="#E2AB47" transform="translate(269,68)"/>
<path d="M0 0 C0.66 0 1.32 0 2 0 C2 0.99 2 1.98 2 3 C3.32 3 4.64 3 6 3 C6 3.99 6 4.98 6 6 C4.68 6 3.36 6 2 6 C2 7.98 2 9.96 2 12 C3.32 12 4.64 12 6 12 C6 12.66 6 13.32 6 14 C3.625 14.125 3.625 14.125 1 14 C-1.39763185 11.60236815 -1.34280586 10.66726502 -1.625 7.375 C-1.69976562 6.55773437 -1.77453125 5.74046875 -1.8515625 4.8984375 C-1.90054688 4.27195313 -1.94953125 3.64546875 -2 3 C-1.34 3 -0.68 3 0 3 C0 2.01 0 1.02 0 0 Z " fill="#1D1C1D" transform="translate(136,127)"/>
<path d="M0 0 C3.81684226 1.55500981 6.19195732 4.03595495 9 7 C7.35 6.67 5.7 6.34 4 6 C4.2165625 7.02480469 4.433125 8.04960938 4.65625 9.10546875 C4.93775834 10.46609241 5.21899395 11.82677251 5.5 13.1875 C5.64308594 13.86103516 5.78617187 14.53457031 5.93359375 15.22851562 C6.68069842 18.87509793 7.17352282 22.27648957 7 26 C5.52037242 23.22815386 4.51016294 20.59467969 3.7109375 17.55859375 C3.49179687 16.72779297 3.27265625 15.89699219 3.046875 15.04101562 C2.82515625 14.18185547 2.6034375 13.32269531 2.375 12.4375 C2.14554688 11.57447266 1.91609375 10.71144531 1.6796875 9.82226562 C0 3.38846261 0 3.38846261 0 0 Z " fill="#14578D" transform="translate(253,70)"/>
<path d="M0 0 C4.29 0 8.58 0 13 0 C13 0.33 13 0.66 13 1 C11.35 1 9.7 1 8 1 C8.185625 1.61875 8.37125 2.2375 8.5625 2.875 C9 5 9 5 8 7 C8.639375 7.28875 9.27875 7.5775 9.9375 7.875 C12 9 12 9 13 11 C9.66666667 9.33333333 6.33333333 7.66666667 3 6 C3 5.01 3 4.02 3 3 C1.68 2.67 0.36 2.34 -1 2 C-0.67 1.34 -0.34 0.68 0 0 Z " fill="#F6A621" transform="translate(246,62)"/>
<path d="M0 0 C2.6881249 -0.08164159 5.373723 -0.14079668 8.0625 -0.1875 C8.81466797 -0.21263672 9.56683594 -0.23777344 10.34179688 -0.26367188 C15.69695602 -0.3332194 19.20913448 0.60456724 24 3 C25.6642135 3.67276716 27.32986582 4.34206835 29 5 C29 5.66 29 6.32 29 7 C28.39671875 6.79503906 27.7934375 6.59007812 27.171875 6.37890625 C26.37265625 6.10949219 25.5734375 5.84007812 24.75 5.5625 C23.96109375 5.29566406 23.1721875 5.02882813 22.359375 4.75390625 C18.83888267 3.62898072 15.58730625 2.87962988 11.890625 2.68359375 C11.13652344 2.64169922 10.38242187 2.59980469 9.60546875 2.55664062 C8.43951172 2.49766602 8.43951172 2.49766602 7.25 2.4375 C6.06083984 2.37272461 6.06083984 2.37272461 4.84765625 2.30664062 C2.89862185 2.20097009 0.94933252 2.10002034 -1 2 C-0.67 1.34 -0.34 0.68 0 0 Z " fill="#FED1D8" transform="translate(517,41)"/>
<path d="M0 0 C0.33 0.66 0.66 1.32 1 2 C0.71125 2.53625 0.4225 3.0725 0.125 3.625 C-2.24974178 8.63834376 -2.4240766 12.63849092 -0.8125 17.8125 C1.33301608 21.58564898 3.20764352 23.10382176 7 25 C7 25.66 7 26.32 7 27 C8.32 27 9.64 27 11 27 C10.67 27.99 10.34 28.98 10 30 C-1.77358491 22.67924528 -1.77358491 22.67924528 -4 16 C-4.77759001 9.42235336 -3.70995164 5.44899147 0 0 Z " fill="#1E5A8F" transform="translate(343,68)"/>
<path d="M0 0 C0.928125 0.20625 1.85625 0.4125 2.8125 0.625 C2.4825 1.615 2.1525 2.605 1.8125 3.625 C0.1625 3.625 -1.4875 3.625 -3.1875 3.625 C-3.1875 4.945 -3.1875 6.265 -3.1875 7.625 C-1.5375 7.625 0.1125 7.625 1.8125 7.625 C2.1425 8.615 2.4725 9.605 2.8125 10.625 C-2.5875 11.945 -2.5875 11.945 -5.0625 10.625 C-6.79408065 7.54663439 -6.56400785 5.07632193 -6.1875 1.625 C-3.1875 -0.375 -3.1875 -0.375 0 0 Z " fill="#1D1D1D" transform="translate(571.1875,130.375)"/>
<path d="M0 0 C5.61 0 11.22 0 17 0 C16.67 1.32 16.34 2.64 16 4 C15.67 3.01 15.34 2.02 15 1 C10.71 1 6.42 1 2 1 C1.67 2.98 1.34 4.96 1 7 C-0.4375 9.125 -0.4375 9.125 -2 11 C-2.69580267 12.31836295 -3.37224433 13.64791086 -4 15 C-5.76148596 9.71554213 -2.16497254 4.91079138 0 0 Z " fill="#1B5A90" transform="translate(292,61)"/>
<path d="M0 0 C0.33 0.66 0.66 1.32 1 2 C2.32 2 3.64 2 5 2 C5 2.99 5 3.98 5 5 C2.525 4.505 2.525 4.505 0 4 C-0.37769531 4.50789063 -0.75539062 5.01578125 -1.14453125 5.5390625 C-6.51671233 12.25743416 -13.45872285 17.58250359 -22.1875 18.875 C-23.5796875 18.936875 -23.5796875 18.936875 -25 19 C-22.52637184 17.35091456 -20.52562869 16.34485547 -17.8125 15.25 C-9.90599312 11.76599453 -4.64345871 7.25540424 0 0 Z " fill="#C5EEFB" transform="translate(179,102)"/>
<path d="M0 0 C0.33 0 0.66 0 1 0 C1.3125 2.3125 1.3125 2.3125 1 5 C-4.46554105 9.23755577 -10.39935284 8.63171838 -17 8 C-19.64393528 7.25195978 -21.58686702 6.34686492 -24 5 C-23.67 3.68 -23.34 2.36 -23 1 C-22.34 1.33 -21.68 1.66 -21 2 C-21 2.66 -21 3.32 -21 4 C-17.44086771 5.18637743 -14.201855 5.14615346 -10.5 5.125 C-9.48486328 5.13080078 -9.48486328 5.13080078 -8.44921875 5.13671875 C-5.35926233 5.13062416 -2.95320689 4.9844023 0 4 C0 2.68 0 1.36 0 0 Z " fill="#D1E8F7" transform="translate(360,103)"/>
<path d="M0 0 C0.66 0.33 1.32 0.66 2 1 C1.52949219 1.6290625 1.05898438 2.258125 0.57421875 2.90625 C-7.30462951 13.73762732 -8.53860827 21.89011091 -9 35 C-9.33 35 -9.66 35 -10 35 C-10 28.4 -10 21.8 -10 15 C-9.34 15 -8.68 15 -8 15 C-7.88527344 14.27296875 -7.77054687 13.5459375 -7.65234375 12.796875 C-6.98116051 9.91922709 -6.01226486 7.81397584 -4.5625 5.25 C-4.13066406 4.47140625 -3.69882812 3.6928125 -3.25390625 2.890625 C-2 1 -2 1 0 0 Z " fill="#FCD4D9" transform="translate(495,54)"/>
<path d="M0 0 C0.66 0.99 1.32 1.98 2 3 C4.6556728 3.58348752 4.6556728 3.58348752 7.625 3.6875 C8.62789062 3.75324219 9.63078125 3.81898437 10.6640625 3.88671875 C11.43492187 3.92410156 12.20578125 3.96148437 13 4 C13 4.33 13 4.66 13 5 C10.36 5 7.72 5 5 5 C4.67 6.32 4.34 7.64 4 9 C1.69 8.67 -0.62 8.34 -3 8 C-3.33 7.01 -3.66 6.02 -4 5 C-3.525625 4.54625 -3.05125 4.0925 -2.5625 3.625 C-0.90972192 2.06741796 -0.90972192 2.06741796 0 0 Z " fill="#414144" transform="translate(787,65)"/>
<path d="M0 0 C1.65 0 3.3 0 5 0 C5 3.3 5 6.6 5 10 C2.03 10 -0.94 10 -4 10 C-4.33 9.01 -4.66 8.02 -5 7 C-3.02 7 -1.04 7 1 7 C1.15149298 3.37114676 1.15149298 3.37114676 0 0 Z " fill="#0E0E0E" transform="translate(103,131)"/>
<path d="M0 0 C0.77601563 0.16371094 1.55203125 0.32742187 2.3515625 0.49609375 C7.0492078 1.144912 11.64013661 1.10640387 16.375 1.0625 C17.76525391 1.05573242 17.76525391 1.05573242 19.18359375 1.04882812 C21.45579709 1.03711574 23.72786388 1.02071372 26 1 C24.42528129 2.86616195 23.52450801 3.89794913 21.08642578 4.37231445 C20.3798584 4.3693335 19.67329102 4.36635254 18.9453125 4.36328125 C18.16542969 4.36263672 17.38554688 4.36199219 16.58203125 4.36132812 C15.36580078 4.3371582 15.36580078 4.3371582 14.125 4.3125 C13.32191406 4.31572266 12.51882813 4.31894531 11.69140625 4.32226562 C7.35872695 4.28300741 3.94356637 4.0037149 0 2 C0 1.34 0 0.68 0 0 Z " fill="#FAE3BC" transform="translate(560,119)"/>
<path d="M0 0 C0.66 0 1.32 0 2 0 C2 0.99 2 1.98 2 3 C3.32 3 4.64 3 6 3 C6 3.66 6 4.32 6 5 C4.68 5 3.36 5 2 5 C2.33 6.65 2.66 8.3 3 10 C3.99 10.33 4.98 10.66 6 11 C6 11.66 6 12.32 6 13 C4.33388095 13.042721 2.66617115 13.04063832 1 13 C0 12 0 12 -0.0625 8.4375 C-0.041875 7.303125 -0.02125 6.16875 0 5 C-0.66 5 -1.32 5 -2 5 C-2 4.01 -2 3.02 -2 2 C-1.34 2 -0.68 2 0 2 C0 1.34 0 0.68 0 0 Z " fill="#070707" transform="translate(537,128)"/>
<path d="M0 0 C1.65 0 3.3 0 5 0 C5 0.99 5 1.98 5 3 C5.99 3.33 6.98 3.66 8 4 C8 4.99 8 5.98 8 7 C8.99 7.33 9.98 7.66 11 8 C9.68 8 8.36 8 7 8 C7 7.01 7 6.02 7 5 C6.34 5 5.68 5 5 5 C5 5.66 5 6.32 5 7 C4.34 7 3.68 7 3 7 C2.67 7.99 2.34 8.98 2 10 C2 9.34 2 8.68 2 8 C1.01 7.67 0.02 7.34 -1 7 C-0.67 6.67 -0.34 6.34 0 6 C0.04080783 4.00041636 0.04254356 1.99954746 0 0 Z " fill="#D3D4D3" transform="translate(532,123)"/>
<path d="M0 0 C0.23509196 4.81938524 -0.54815522 8.46298506 -2 13 C-2.33 13 -2.66 13 -3 13 C-3 11.02 -3 9.04 -3 7 C-4.32 6.67 -5.64 6.34 -7 6 C-7 5.01 -7 4.02 -7 3 C-4.46815512 0.64276511 -3.52809907 0 0 0 Z " fill="#36363A" transform="translate(827,102)"/>
<path d="M0 0 C0.66 0.33 1.32 0.66 2 1 C0.21898243 5.37158859 -2.79641231 9.05560527 -7.1875 10.9375 C-9.97357156 12.57071436 -10.11017814 15.01274089 -11 18 C-11.66 18.33 -12.32 18.66 -13 19 C-11.03835796 11.15343182 -5.76167012 5.42274835 0 0 Z " fill="#D2182E" transform="translate(73,50)"/>
<path d="M0 0 C0.66 1.32 1.32 2.64 2 4 C2.99 3.67 3.98 3.34 5 3 C4.67 6.3 4.34 9.6 4 13 C3.67 12.34 3.34 11.68 3 11 C2.34 11 1.68 11 1 11 C1 13.31 1 15.62 1 18 C0.67 18 0.34 18 0 18 C0 12.06 0 6.12 0 0 Z " fill="#D6D7D8" transform="translate(790,107)"/>
<path d="M0 0 C0 0.66 0 1.32 0 2 C-1.26457031 2.04898438 -2.52914063 2.09796875 -3.83203125 2.1484375 C-5.49220947 2.2234738 -7.15236464 2.29902127 -8.8125 2.375 C-9.64587891 2.4059375 -10.47925781 2.436875 -11.33789062 2.46875 C-12.14033203 2.50742187 -12.94277344 2.54609375 -13.76953125 2.5859375 C-14.50792236 2.6173584 -15.24631348 2.6487793 -16.00708008 2.68115234 C-18.31349588 2.90834614 -18.31349588 2.90834614 -21 5 C-20.125 1.125 -20.125 1.125 -19 0 C-16.55571462 -0.26536271 -14.13903274 -0.46905592 -11.6875 -0.625 C-11.01009766 -0.6765625 -10.33269531 -0.728125 -9.63476562 -0.78125 C-6.23132333 -1.00748077 -3.25055604 -1.11972881 0 0 Z " fill="#CBE2F5" transform="translate(423,59)"/>
<path d="M0 0 C0 0.66 0 1.32 0 2 C-0.99 2.33 -1.98 2.66 -3 3 C-3.391875 3.61875 -3.78375 4.2375 -4.1875 4.875 C-6.83017592 7.97330971 -10.11968412 8.96733529 -14 10 C-14.99 10 -15.98 10 -17 10 C-6.03333333 0 -6.03333333 0 0 0 Z " fill="#D4172E" transform="translate(513,45)"/>
<path d="M0 0 C2.42130331 2.42130331 2.52840504 3.80111377 3.125 7.125 C3.29257812 8.03507812 3.46015625 8.94515625 3.6328125 9.8828125 C3.81457031 10.93082031 3.81457031 10.93082031 4 12 C3.01 11.34 2.02 10.68 1 10 C0.34 10.66 -0.32 11.32 -1 12 C-1.99 11.67 -2.98 11.34 -4 11 C-2.68 7.37 -1.36 3.74 0 0 Z " fill="#D4E6F3" transform="translate(410,80)"/>
<path d="M0 0 C2.31 0 4.62 0 7 0 C7 0.99 7 1.98 7 3 C5.68 3 4.36 3 3 3 C3 5.64 3 8.28 3 11 C2.01 11 1.02 11 0 11 C0 7.37 0 3.74 0 0 Z " fill="#2E2E2E" transform="translate(557,130)"/>
<path d="M0 0 C0.66 0 1.32 0 2 0 C2 4.62 2 9.24 2 14 C0.35 14 -1.3 14 -3 14 C-2.649375 13.4225 -2.29875 12.845 -1.9375 12.25 C-0.83487562 9.6037015 -0.95046049 8.62384878 -2 6 C-2.66 5.34 -3.32 4.68 -4 4 C-2.68 4 -1.36 4 0 4 C0 2.68 0 1.36 0 0 Z " fill="#030303" transform="translate(605,127)"/>
<path d="M0 0 C6.93 0 13.86 0 21 0 C21.33 3.3 21.66 6.6 22 10 C21.01 9.67 20.02 9.34 19 9 C19.33 7.35 19.66 5.7 20 4 C19.34 4 18.68 4 18 4 C18 3.34 18 2.68 18 2 C12.06 1.67 6.12 1.34 0 1 C0 0.67 0 0.34 0 0 Z " fill="#BFD8EC" transform="translate(398,114)"/>
<path d="M0 0 C0.33 0 0.66 0 1 0 C1 1.98 1 3.96 1 6 C3.31 6 5.62 6 8 6 C8 4.02 8 2.04 8 0 C10 2 10 2 10 8 C6.04 8 2.08 8 -2 8 C-1 3 -1 3 0 0 Z " fill="#D3EAF8" transform="translate(405,93)"/>
<path d="M0 0 C0.81434143 2.85160391 1.11881242 5.36626131 1.09765625 8.328125 C1.09282227 9.52695313 1.09282227 9.52695313 1.08789062 10.75 C1.07951172 11.575 1.07113281 12.4 1.0625 13.25 C1.05798828 14.09046875 1.05347656 14.9309375 1.04882812 15.796875 C1.03707961 17.86461401 1.01914522 19.93231624 1 22 C-1.88704861 19.54999262 -1.9863294 19.14831863 -2.36328125 15.05859375 C-2.36195441 13.51813673 -2.34445282 11.97762616 -2.3125 10.4375 C-2.31572266 9.65697266 -2.31894531 8.87644531 -2.32226562 8.07226562 C-2.26716981 2.26716981 -2.26716981 2.26716981 0 0 Z " fill="#BD1F4D" transform="translate(107,72)"/>
<path d="M0 0 C9.57 0 19.14 0 29 0 C29 0.33 29 0.66 29 1 C15.635 1.495 15.635 1.495 2 2 C4.475 2.99 4.475 2.99 7 4 C7 4.33 7 4.66 7 5 C5.02 5 3.04 5 1 5 C0.67 3.35 0.34 1.7 0 0 Z " fill="#FBDEA7" transform="translate(235,60)"/>
<path d="M0 0 C0.33 0 0.66 0 1 0 C1.16589226 6.02741895 0.57114133 11.57494793 -0.5 17.5 C-0.64308594 18.32242188 -0.78617187 19.14484375 -0.93359375 19.9921875 C-1.28306912 21.99584627 -1.64068156 23.99808298 -2 26 C-2.33 26 -2.66 26 -3 26 C-3.31374527 16.98853851 -2.24529589 8.71822097 0 0 Z " fill="#D8EDFA" transform="translate(308,98)"/>
<path d="M0 0 C0.33 0 0.66 0 1 0 C1.33 3.96 1.66 7.92 2 12 C0.35 12.66 -1.3 13.32 -3 14 C-4.98 11.69 -6.96 9.38 -9 7 C-7.02 7.99 -7.02 7.99 -5 9 C-4.01 9 -3.02 9 -2 9 C-1.34 6.03 -0.68 3.06 0 0 Z " fill="#E5A531" transform="translate(268,66)"/>
<path d="M0 0 C5.28 0 10.56 0 16 0 C19.34821429 13.39285714 19.34821429 13.39285714 18 17 C17.31904891 15.63201789 16.65591761 14.25515997 16 12.875 C15.62875 12.10929687 15.2575 11.34359375 14.875 10.5546875 C14 8 14 8 14 2 C7.07 1.505 7.07 1.505 0 1 C0 0.67 0 0.34 0 0 Z " fill="#1E5C8E" transform="translate(407,61)"/>
<path d="M0 0 C-0.33 0.99 -0.66 1.98 -1 3 C-1.99 3 -2.98 3 -4 3 C-4 5.64 -4 8.28 -4 11 C-4.99 11 -5.98 11 -7 11 C-7 7.7 -7 4.4 -7 1 C-4 0 -4 0 0 0 Z " fill="#262626" transform="translate(152,130)"/>
<path d="M0 0 C2.62527189 -0.05382106 5.24944713 -0.09358313 7.875 -0.125 C8.62136719 -0.14175781 9.36773438 -0.15851562 10.13671875 -0.17578125 C12.09194461 -0.1933959 14.04742021 -0.10320189 16 0 C16.66 0.66 17.32 1.32 18 2 C16.91460938 2.06058594 15.82921875 2.12117188 14.7109375 2.18359375 C13.26561514 2.26806064 11.82030318 2.35270551 10.375 2.4375 C9.66214844 2.47681641 8.94929687 2.51613281 8.21484375 2.55664062 C4.08196318 2.80309681 0.07730976 3.23470053 -4 4 C-4 3.34 -4 2.68 -4 2 C-2.68 2 -1.36 2 0 2 C0 1.34 0 0.68 0 0 Z " fill="#FBE6C3" transform="translate(564,41)"/>
<path d="M0 0 C2.92426623 -0.11697065 4.38276028 -0.16785199 7 1 C9.56253333 4.0532312 11.53112941 7.29228633 13 11 C12.67 11.99 12.34 12.98 12 14 C11.55269531 13.40832031 11.10539063 12.81664062 10.64453125 12.20703125 C7.31190989 7.85117433 3.99878515 3.75643454 0 0 Z " fill="#F8E9D0" transform="translate(596,49)"/>
<path d="M0 0 C2.97 0.495 2.97 0.495 6 1 C6 1.66 6 2.32 6 3 C6.99 3 7.98 3 9 3 C9 3.66 9 4.32 9 5 C11.97 5.99 14.94 6.98 18 8 C16.02 8.99 16.02 8.99 14 10 C11.30859375 9.0234375 11.30859375 9.0234375 8.4375 7.375 C7.48746094 6.84648438 6.53742188 6.31796875 5.55859375 5.7734375 C3.07014234 4.04861775 1.63481427 2.52102671 0 0 Z " fill="#D41D34" transform="translate(498,110)"/>
<path d="M0 0 C1.1725131 0.95117134 2.33787015 1.91117009 3.5 2.875 C4.47453125 3.67550781 4.47453125 3.67550781 5.46875 4.4921875 C5.9740625 4.98976563 6.479375 5.48734375 7 6 C7 6.66 7 7.32 7 8 C2.61538462 11 2.61538462 11 0 11 C0.33 10.01 0.66 9.02 1 8 C0.71325582 5.99279077 0.38133299 3.9914056 0 2 C0 1.34 0 0.68 0 0 Z " fill="#CD132F" transform="translate(114,106)"/>
<path d="M0 0 C2.31 0.33 4.62 0.66 7 1 C6.01 1.66 5.02 2.32 4 3 C3.42251197 4.96361864 3.42251197 4.96361864 3.3125 7.125 C3.209375 8.40375 3.10625 9.6825 3 11 C2.01 11 1.02 11 0 11 C0 7.37 0 3.74 0 0 Z " fill="#1A1A1A" transform="translate(78,130)"/>
<path d="M0 0 C0.66 0.33 1.32 0.66 2 1 C1.67 3.31 1.34 5.62 1 8 C0.0925 7.67 -0.815 7.34 -1.75 7 C-7.79037005 5.25472914 -15.0316001 5.01053337 -21 7 C-21 6.34 -21 5.68 -21 5 C-18.07073378 3.53536689 -15.44743219 3.86817292 -12.1875 3.875 C-10.35251953 3.87113281 -10.35251953 3.87113281 -8.48046875 3.8671875 C-5.50982844 3.98054527 -2.8810519 4.30854754 0 5 C0 3.35 0 1.7 0 0 Z " fill="#1B598C" transform="translate(378,68)"/>
<path d="M0 0 C2.97 0.495 2.97 0.495 6 1 C6.33 2.98 6.66 4.96 7 7 C6.01 7.33 5.02 7.66 4 8 C4 7.34 4 6.68 4 6 C2.68 5.67 1.36 5.34 0 5 C0 3.35 0 1.7 0 0 Z " fill="#D8D8D8" transform="translate(539,133)"/>
<path d="M0 0 C2.97 0.495 2.97 0.495 6 1 C5.34 1.66 4.68 2.32 4 3 C3.54188325 4.97235333 3.54188325 4.97235333 3.375 7.125 C3.25125 8.40375 3.1275 9.6825 3 11 C2.01 11 1.02 11 0 11 C0 7.37 0 3.74 0 0 Z " fill="#272727" transform="translate(492,130)"/>
<path d="M0 0 C2.97 0 5.94 0 9 0 C9 3.3 9 6.6 9 10 C8.01 8.68 7.02 7.36 6 6 C4.68671343 4.64691687 3.35500919 3.31129922 2 2 C1.34 1.34 0.68 0.68 0 0 Z " fill="#E9F3F6" transform="translate(912,0)"/>
<path d="M0 0 C1.98 0 3.96 0 6 0 C6.33 1.32 6.66 2.64 7 4 C6.34 4 5.68 4 5 4 C4.67 4.66 4.34 5.32 4 6 C2.35 5.67 0.7 5.34 -1 5 C-0.67 3.35 -0.34 1.7 0 0 Z " fill="#DEDEDE" transform="translate(568,133)"/>
<path d="M0 0 C2.31 0 4.62 0 7 0 C7 3.3 7 6.6 7 10 C5.68 9.67 4.36 9.34 3 9 C3.0928125 7.329375 3.0928125 7.329375 3.1875 5.625 C3.125625 4.42875 3.06375 3.2325 3 2 C2.01 1.34 1.02 0.68 0 0 Z " fill="#0D0D0D" transform="translate(515,131)"/>
<path d="M0 0 C1.4540625 0.0309375 1.4540625 0.0309375 2.9375 0.0625 C2.9375 1.7125 2.9375 3.3625 2.9375 5.0625 C0.6275 5.0625 -1.6825 5.0625 -4.0625 5.0625 C-4.0625 0.08290816 -4.0625 0.08290816 0 0 Z " fill="#D1D2D5" transform="translate(854.0625,114.9375)"/>
<path d="M0 0 C3.39417765 3.12621626 5.6062718 5.56541027 7 10 C6.34 10.66 5.68 11.32 5 12 C5 10.68 5 9.36 5 8 C4.01 8.33 3.02 8.66 2 9 C2 8.34 2 7.68 2 7 C1.01 6.67 0.02 6.34 -1 6 C-0.67 4.02 -0.34 2.04 0 0 Z " fill="#EFA334" transform="translate(602,55)"/>
<path d="M0 0 C2.97 0 5.94 0 9 0 C7.8553125 0.804375 7.8553125 0.804375 6.6875 1.625 C3.77135526 4.20205814 2.5294378 6.45814404 1 10 C0.67 10 0.34 10 0 10 C0 6.7 0 3.4 0 0 Z " fill="#EAF5F9" transform="translate(0,0)"/>
<path d="M0 0 C0.33 0 0.66 0 1 0 C1 1.98 1 3.96 1 6 C1.99 6.33 2.98 6.66 4 7 C1.03 6.505 1.03 6.505 -2 6 C-2 5.34 -2 4.68 -2 4 C-3.98 4 -5.96 4 -8 4 C-8.33 3.34 -8.66 2.68 -9 2 C-6.94921875 1.77213542 -4.8984375 1.54427083 -2.84765625 1.31640625 C-0.98859771 1.18113386 -0.98859771 1.18113386 0 0 Z " fill="#DCDCDC" transform="translate(556,135)"/>
<path d="M0 0 C1.67542976 0.28604898 3.34385343 0.61781233 5 1 C5 2.32 5 3.64 5 5 C2.36 5 -0.28 5 -3 5 C-1.125 1.125 -1.125 1.125 0 0 Z " fill="#4B4B4B" transform="translate(548,130)"/>
<path d="M0 0 C0.33 0 0.66 0 1 0 C1 1.98 1 3.96 1 6 C-2.3 6.33 -5.6 6.66 -9 7 C-8.67 5.68 -8.34 4.36 -8 3 C-8.66 2.67 -9.32 2.34 -10 2 C-6.28111761 2.50712033 -3.26545761 3.11608215 0 5 C0 3.35 0 1.7 0 0 Z " fill="#D0E4F2" transform="translate(379,71)"/>
<path d="M0 0 C0.99 0.33 1.98 0.66 3 1 C3.144375 2.134375 3.28875 3.26875 3.4375 4.4375 C3.61171478 7.80777201 3.61171478 7.80777201 5 9 C5.07205511 10.68608966 5.08386068 12.37500659 5.0625 14.0625 C5.05347656 14.98160156 5.04445313 15.90070313 5.03515625 16.84765625 C5.02355469 17.55792969 5.01195312 18.26820312 5 19 C2.8172154 15.31773729 2.1441596 11.40189215 1.375 7.25 C1.2409375 6.55261719 1.106875 5.85523437 0.96875 5.13671875 C0.64056736 3.42548068 0.31956498 1.71286829 0 0 Z " fill="#FBE6BE" transform="translate(268,63)"/>
<path d="M0 0 C2.97 0 5.94 0 9 0 C7.375 2 7.375 2 5 4 C1.75 4.25 1.75 4.25 -1 4 C-1.33 3.34 -1.66 2.68 -2 2 C-1.34 2 -0.68 2 0 2 C0 1.34 0 0.68 0 0 Z " fill="#27282A" transform="translate(792,70)"/>
<path d="M0 0 C0 0.66 0 1.32 0 2 C-0.61875 2.061875 -1.2375 2.12375 -1.875 2.1875 C-4.27761141 2.828919 -4.27761141 2.828919 -5.25 5.5625 C-5.4975 6.366875 -5.745 7.17125 -6 8 C-8.97 7.505 -8.97 7.505 -12 7 C-8.8380314 3.47318887 -4.98182478 0 0 0 Z " fill="#175B94" transform="translate(356,61)"/>
<path d="M0 0 C1.4540625 0.0309375 1.4540625 0.0309375 2.9375 0.0625 C3.2675 1.0525 3.5975 2.0425 3.9375 3.0625 C1.3720406 5.6279594 -0.53936668 5.60296087 -4.0625 6.0625 C-4.105221 4.39638095 -4.10313832 2.72867115 -4.0625 1.0625 C-3.0625 0.0625 -3.0625 0.0625 0 0 Z " fill="#2C2C2C" transform="translate(127.0625,129.9375)"/>
<path d="M0 0 C1.32 0.33 2.64 0.66 4 1 C4 3.97 4 6.94 4 10 C3.01 10 2.02 10 1 10 C0.67 6.7 0.34 3.4 0 0 Z " fill="#111111" transform="translate(505,131)"/>
<path d="M0 0 C1.67542976 0.28604898 3.34385343 0.61781233 5 1 C4.67 2.32 4.34 3.64 4 5 C2.68 5.33 1.36 5.66 0 6 C-0.38218767 4.34385343 -0.71395102 2.67542976 -1 1 C-0.67 0.67 -0.34 0.34 0 0 Z " fill="#DFDFDF" transform="translate(600,133)"/>
<path d="M0 0 C1.67542976 0.28604898 3.34385343 0.61781233 5 1 C4.67 2.65 4.34 4.3 4 6 C2.68 5.67 1.36 5.34 0 5 C-0.5625 3.0625 -0.5625 3.0625 -1 1 C-0.67 0.67 -0.34 0.34 0 0 Z " fill="#DDDDDD" transform="translate(156,133)"/>
<path d="M0 0 C1.41152344 0.14018555 1.41152344 0.14018555 2.8515625 0.28320312 C3.83640625 0.38697266 4.82125 0.49074219 5.8359375 0.59765625 C7.32480469 0.74750977 7.32480469 0.74750977 8.84375 0.90039062 C11.30006431 1.1483839 13.75568887 1.40185878 16.2109375 1.66015625 C16.2109375 1.99015625 16.2109375 2.32015625 16.2109375 2.66015625 C13.12768392 2.71838155 10.04457245 2.75382759 6.9609375 2.78515625 C5.65189453 2.81029297 5.65189453 2.81029297 4.31640625 2.8359375 C3.47207031 2.84238281 2.62773437 2.84882812 1.7578125 2.85546875 C0.98276367 2.86594238 0.20771484 2.87641602 -0.59082031 2.88720703 C-3.04789789 2.63342181 -4.66217792 1.88459777 -6.7890625 0.66015625 C-4.23975756 -0.61449622 -2.82557212 -0.28936582 0 0 Z " fill="#1B5C93" transform="translate(341.7890625,121.33984375)"/>
<path d="M0 0 C0.33 0 0.66 0 1 0 C1.35021929 4.90307004 0.58145854 7.81625686 -2 12 C-4.6875 14.875 -4.6875 14.875 -7 17 C-6.01 14.03 -5.02 11.06 -4 8 C-3.34 8 -2.68 8 -2 8 C-2 7.01 -2 6.02 -2 5 C-1.34 5 -0.68 5 0 5 C0 3.35 0 1.7 0 0 Z " fill="#5282D8" transform="translate(133,91)"/>
<path d="M0 0 C1.36420006 4.09260018 -0.2335485 6.47012659 -1.9375 10.1875 C-2.22818359 10.84169922 -2.51886719 11.49589844 -2.81835938 12.16992188 C-3.53695343 13.78381344 -4.2673588 15.39243655 -5 17 C-5.33 17 -5.66 17 -6 17 C-6 15.02 -6 13.04 -6 11 C-5.34 11 -4.68 11 -4 11 C-4 9.68 -4 8.36 -4 7 C-3.34 7 -2.68 7 -2 7 C-1.855625 6.21625 -1.71125 5.4325 -1.5625 4.625 C-1 2 -1 2 0 0 Z " fill="#195A92" transform="translate(303,73)"/>
<path d="M0 0 C-1 3 -1 3 -2.5625 4.5 C-4.34595268 6.01472806 -4.34595268 6.01472806 -4 9 C-4.99 9 -5.98 9 -7 9 C-7.33 7.35 -7.66 5.7 -8 4 C-2.25 0 -2.25 0 0 0 Z " fill="#2299D5" transform="translate(130,46)"/>
<path d="M0 0 C0.226875 0.639375 0.45375 1.27875 0.6875 1.9375 C1.85250896 4.27193661 1.85250896 4.27193661 4.625 4.75 C5.40875 4.8325 6.1925 4.915 7 5 C7 5.66 7 6.32 7 7 C6.21625 6.95875 5.4325 6.9175 4.625 6.875 C1.83883881 6.71271266 1.83883881 6.71271266 0 9 C0 7.68 0 6.36 0 5 C-0.66 5 -1.32 5 -2 5 C-2 3.68 -2 2.36 -2 1 C-1.34 0.67 -0.68 0.34 0 0 Z " fill="#CCCCCC" transform="translate(122,132)"/>
<path d="M0 0 C1.98 0 3.96 0 6 0 C6 0.66 6 1.32 6 2 C5.01 2.33 4.02 2.66 3 3 C2.67 5.31 2.34 7.62 2 10 C1.34 10 0.68 10 0 10 C0 6.7 0 3.4 0 0 Z " fill="#090909" transform="translate(589,131)"/>
<path d="M0 0 C0.99 0.33 1.98 0.66 3 1 C3 3.97 3 6.94 3 10 C2.01 10 1.02 10 0 10 C0 6.7 0 3.4 0 0 Z " fill="#202020" transform="translate(92,131)"/>
<path d="M0 0 C1.65 0 3.3 0 5 0 C5 1.65 5 3.3 5 5 C3.0625 5.5625 3.0625 5.5625 1 6 C0 5 0 5 -0.0625 2.4375 C-0.041875 1.633125 -0.02125 0.82875 0 0 Z " fill="#E2E2E2" transform="translate(100,133)"/>
<path d="M0 0 C1.2065625 0.0309375 1.2065625 0.0309375 2.4375 0.0625 C2.4375 1.72916667 2.4375 3.39583333 2.4375 5.0625 C-0.2025 5.0625 -2.8425 5.0625 -5.5625 5.0625 C-3.15007962 0.07683121 -3.15007962 0.07683121 0 0 Z " fill="#626262" transform="translate(115.5625,129.9375)"/>
<path d="M0 0 C2.31 0 4.62 0 7 0 C7 1.32 7 2.64 7 4 C4.69 4 2.38 4 0 4 C0 2.68 0 1.36 0 0 Z " fill="#EAEBED" transform="translate(801,116)"/>
<path d="M0 0 C1.32 0 2.64 0 4 0 C4 1.65 4 3.3 4 5 C2.68 5.33 1.36 5.66 0 6 C-0.38218767 4.34385343 -0.71395102 2.67542976 -1 1 C-0.67 0.67 -0.34 0.34 0 0 Z " fill="#E9E9E9" transform="translate(579,133)"/>
<path d="M0 0 C1.32 0 2.64 0 4 0 C4 1.65 4 3.3 4 5 C2.68 5.33 1.36 5.66 0 6 C-0.38218767 4.34385343 -0.71395102 2.67542976 -1 1 C-0.67 0.67 -0.34 0.34 0 0 Z " fill="#E9E9E9" transform="translate(515,133)"/>
<path d="M0 0 C2 3 2 3 2 7 C-0.31 7 -2.62 7 -5 7 C-5 6.01 -5 5.02 -5 4 C-4.0409375 3.8453125 -4.0409375 3.8453125 -3.0625 3.6875 C-2.381875 3.460625 -1.70125 3.23375 -1 3 C-0.67 2.01 -0.34 1.02 0 0 Z " fill="#0C5694" transform="translate(433,116)"/>
<path d="M0 0 C-0.33 2.97 -0.66 5.94 -1 9 C-2.32 9 -3.64 9 -5 9 C-4.38709677 3.48387097 -4.38709677 3.48387097 -2.5 1.125 C-1 0 -1 0 0 0 Z " fill="#EDEEF0" transform="translate(378,113)"/>
<path d="M0 0 C0.66 0 1.32 0 2 0 C2 0.66 2 1.32 2 2 C2.66 2 3.32 2 4 2 C2.71480435 4.86697492 1.42870746 6.97607712 -1 9 C-1.66 9 -2.32 9 -3 9 C-3.33 8.01 -3.66 7.02 -4 6 C-3.34 5.34 -2.68 4.68 -2 4 C-1.01 4.33 -0.02 4.66 1 5 C0.67 3.35 0.34 1.7 0 0 Z " fill="#21A2DA" transform="translate(172,104)"/>
<path d="M0 0 C0.66 0 1.32 0 2 0 C1.5205537 4.21912747 0.83374881 6.79663178 -2 10 C-2.33 7.36 -2.66 4.72 -3 2 C-2.01 2 -1.02 2 0 2 C0 1.34 0 0.68 0 0 Z " fill="#D2E7F7" transform="translate(278,92)"/>
<path d="M0 0 C0.66 0.33 1.32 0.66 2 1 C0.02 5.95 -1.96 10.9 -4 16 C-4.33 16 -4.66 16 -5 16 C-5.76128062 10.10007517 -2.55705755 5.1141151 0 0 Z " fill="#D1E6F7" transform="translate(400,64)"/>
<path d="M0 0 C-0.33 0.99 -0.66 1.98 -1 3 C-3.64 3.33 -6.28 3.66 -9 4 C-8.625 2.0625 -8.625 2.0625 -8 0 C-5.13822943 -1.43088528 -3.06624227 -0.59991697 0 0 Z " fill="#262626" transform="translate(574,131)"/>
<path d="M0 0 C2 1 2 1 3.125 4.0625 C4.19682285 8.09858291 4.1459001 11.84184728 4 16 C1.11388804 11.0523795 0 5.66834163 0 0 Z " fill="#CEE7F7" transform="translate(423,62)"/>
<path d="M0 0 C-0.66 0 -1.32 0 -2 0 C-2 0.66 -2 1.32 -2 2 C-6.95 1.67 -11.9 1.34 -17 1 C-17 0.67 -17 0.34 -17 0 C-14.9174133 -0.19561869 -12.83388144 -0.38119313 -10.75 -0.5625 C-9.58984375 -0.66691406 -8.4296875 -0.77132812 -7.234375 -0.87890625 C-4.48128523 -0.98198087 -2.580018 -0.86213473 0 0 Z " fill="#FBB5BC" transform="translate(537,121)"/>
<path d="M0 0 C4.12751449 0.60698743 7.3321148 2.03810791 11 4 C11 4.33 11 4.66 11 5 C9.35 5 7.7 5 6 5 C6 4.34 6 3.68 6 3 C3.36 3.33 0.72 3.66 -2 4 C-1.34 3.67 -0.68 3.34 0 3 C0 2.01 0 1.02 0 0 Z " fill="#F9E4CE" transform="translate(548,114)"/>
<path d="M0 0 C2.97 0.495 2.97 0.495 6 1 C6.0825 1.5775 6.165 2.155 6.25 2.75 C7.20531013 5.6159304 8.78469173 6.9990764 11 9 C5.70841026 7.59928507 3.22521956 4.14512755 0 0 Z " fill="#CE1931" transform="translate(67,107)"/>
<path d="M0 0 C2.42130331 2.42130331 2.52840504 3.80111377 3.125 7.125 C3.29257812 8.03507812 3.46015625 8.94515625 3.6328125 9.8828125 C3.81457031 10.93082031 3.81457031 10.93082031 4 12 C3.01 12.33 2.02 12.66 1 13 C0.67 8.71 0.34 4.42 0 0 Z " fill="#EDE1CB" transform="translate(273,82)"/>
<path d="M0 0 C1.20220203 3.53094302 0.79532349 6.12898982 0.0625 9.75 C-0.13214844 10.73484375 -0.32679688 11.7196875 -0.52734375 12.734375 C-0.68332031 13.48203125 -0.83929688 14.2296875 -1 15 C-1.33 15 -1.66 15 -2 15 C-2.05386629 12.87527424 -2.09273071 10.75016348 -2.125 8.625 C-2.14820313 7.44164063 -2.17140625 6.25828125 -2.1953125 5.0390625 C-2 2 -2 2 0 0 Z " fill="#BDD9EC" transform="translate(311,86)"/>
<path d="M0 0 C0.66 0 1.32 0 2 0 C1.34 2.97 0.68 5.94 0 9 C-0.66 9 -1.32 9 -2 9 C-2 8.01 -2 7.02 -2 6 C-2.66 6 -3.32 6 -4 6 C-3.67 5.01 -3.34 4.02 -3 3 C-2.01 3 -1.02 3 0 3 C0 2.01 0 1.02 0 0 Z " fill="#155C98" transform="translate(407,82)"/>
<path d="M0 0 C0.598125 0.20625 1.19625 0.4125 1.8125 0.625 C1.1525 0.625 0.4925 0.625 -0.1875 0.625 C-0.1875 1.945 -0.1875 3.265 -0.1875 4.625 C-1.8375 4.295 -3.4875 3.965 -5.1875 3.625 C-5.5175 4.615 -5.8475 5.605 -6.1875 6.625 C-5.875 4.25 -5.875 4.25 -5.1875 1.625 C-2.1875 -0.375 -2.1875 -0.375 0 0 Z " fill="#CAE2F2" transform="translate(362.1875,73.375)"/>
<path d="M0 0 C2.97 0.33 5.94 0.66 9 1 C5.71536341 3.18975773 2.79303725 3.99806563 -1 5 C-1.33 4.34 -1.66 3.68 -2 3 C-1.34 3 -0.68 3 0 3 C0 2.01 0 1.02 0 0 Z " fill="#F9DCDB" transform="translate(507,42)"/>
<path d="M0 0 C0.33 0.66 0.66 1.32 1 2 C3.64 2 6.28 2 9 2 C9 2.99 9 3.98 9 5 C5.625 5.125 5.625 5.125 2 5 C1.34 4.34 0.68 3.68 0 3 C0 2.01 0 1.02 0 0 Z " fill="#1D1D1D" transform="translate(110,136)"/>
<path d="M0 0 C4.51720311 -0.36625971 4.51720311 -0.36625971 6.8125 1.375 C8 3 8 3 8 5 C7.34 5 6.68 5 6 5 C5.67 5.66 5.34 6.32 5 7 C4.67 6.01 4.34 5.02 4 4 C3.01 3.34 2.02 2.68 1 2 C0.67 1.34 0.34 0.68 0 0 Z " fill="#303030" transform="translate(156,130)"/>
<path d="M0 0 C2.97 1.65 5.94 3.3 9 5 C8.67 5.66 8.34 6.32 8 7 C6.68 7 5.36 7 4 7 C3.896875 6.360625 3.79375 5.72125 3.6875 5.0625 C3.460625 4.381875 3.23375 3.70125 3 3 C2.01 2.67 1.02 2.34 0 2 C0 1.34 0 0.68 0 0 Z " fill="#23A1D8" transform="translate(162,46)"/>
<path d="M0 0 C0.433125 0.61875 0.86625 1.2375 1.3125 1.875 C2.99740483 4.2197245 2.99740483 4.2197245 6 6 C3.625 6.625 3.625 6.625 1 7 C0.34 6.34 -0.32 5.68 -1 5 C-0.625 2.375 -0.625 2.375 0 0 Z " fill="#101010" transform="translate(576,134)"/>
<path d="M0 0 C3.96 1.98 3.96 1.98 8 4 C8 4.33 8 4.66 8 5 C1.25 5.125 1.25 5.125 -1 4 C-0.67 2.68 -0.34 1.36 0 0 Z " fill="#DBDBDB" transform="translate(523,134)"/>
<path d="M0 0 C3.3 1.98 6.6 3.96 10 6 C9.34 6.66 8.68 7.32 8 8 C5.125 6.8125 5.125 6.8125 2 5 C1.34 3.35 0.68 1.7 0 0 Z " fill="#FBD7D9" transform="translate(70,111)"/>
<path d="M0 0 C0.33 0 0.66 0 1 0 C2.34516765 6.35897436 2.34516765 6.35897436 0.6875 9.4375 C-1 11 -1 11 -3 11 C-2.01 7.37 -1.02 3.74 0 0 Z " fill="#CBF1F9" transform="translate(184,89)"/>
<path d="M0 0 C4.75 1.875 4.75 1.875 7 3 C5.25 6.875 5.25 6.875 3 8 C3 6.02 3 4.04 3 2 C2.01 2 1.02 2 0 2 C0 1.34 0 0.68 0 0 Z " fill="#C51836" transform="translate(114,47)"/>
<path d="M0 0 C5.26053037 -0.31563182 8.44573816 0.33409063 13 3 C13 3.66 13 4.32 13 5 C11.58208592 4.54554036 10.16571954 4.08625056 8.75 3.625 C7.96109375 3.36976562 7.1721875 3.11453125 6.359375 2.8515625 C4.13372042 2.04826333 2.09068328 1.10288338 0 0 Z " fill="#FCC9CE" transform="translate(533,43)"/>
<path d="M0 0 C0.66 0 1.32 0 2 0 C2 1.98 2 3.96 2 6 C0.35 6 -1.3 6 -3 6 C-2 4 -1 2 0 0 Z " fill="#0A0A0A" transform="translate(605,135)"/>
<path d="M0 0 C2.1875 0.3125 2.1875 0.3125 4 1 C4 1.66 4 2.32 4 3 C3.01 3.33 2.02 3.66 1 4 C0.01 5.485 0.01 5.485 -1 7 C-1.66 5.68 -2.32 4.36 -3 3 C-1.75 1.4375 -1.75 1.4375 0 0 Z " fill="#303030" transform="translate(599,130)"/>
<path d="M0 0 C0.66 0 1.32 0 2 0 C0.90931332 3.77545388 0.0916909 6.47043472 -3 9 C-3 6.36 -3 3.72 -3 1 C-2.67 1.66 -2.34 2.32 -2 3 C-1.34 3 -0.68 3 0 3 C0 2.01 0 1.02 0 0 Z " fill="#EBA237" transform="translate(607,98)"/>
<path d="M0 0 C1.50560497 2.85410334 2.63216796 5.68124642 3.625 8.75 C3.88539063 9.54921875 4.14578125 10.3484375 4.4140625 11.171875 C4.60742188 11.77515625 4.80078125 12.3784375 5 13 C4.34 13 3.68 13 3 13 C-0.4887612 8.70614007 -0.26854022 5.28129105 0 0 Z " fill="#FBC9D0" transform="translate(486,89)"/>
<path d="M0 0 C1.98 0 3.96 0 6 0 C6 0.66 6 1.32 6 2 C6.99 2.33 7.98 2.66 9 3 C9 3.66 9 4.32 9 5 C6.03 4.01 3.06 3.02 0 2 C0 1.34 0 0.68 0 0 Z " fill="#EBAD3F" transform="translate(240,62)"/>
<path d="M0 0 C2.1875 0.3125 2.1875 0.3125 4 1 C4 1.66 4 2.32 4 3 C3.01 3.33 2.02 3.66 1 4 C0.01 5.485 0.01 5.485 -1 7 C-1.66 5.68 -2.32 4.36 -3 3 C-1.75 1.4375 -1.75 1.4375 0 0 Z " fill="#373737" transform="translate(514,130)"/>
<path d="M0 0 C3.3 1.65 6.6 3.3 10 5 C10 5.33 10 5.66 10 6 C8.35 6 6.7 6 5 6 C5 5.34 5 4.68 5 4 C3.68 4 2.36 4 1 4 C0.67 2.68 0.34 1.36 0 0 Z " fill="#FBD5D7" transform="translate(500,113)"/>
<path d="M0 0 C1.98 0 3.96 0 6 0 C6.66 1.32 7.32 2.64 8 4 C6.02 4 4.04 4 2 4 C2.33 3.34 2.66 2.68 3 2 C2.01 1.34 1.02 0.68 0 0 Z " fill="#D1D2D3" transform="translate(849,107)"/>
<path d="M0 0 C1.60080151 4.00200378 0.29279692 7.04556236 -1 11 C-1.66 11 -2.32 11 -3 11 C-2.44894091 7.0507432 -1.61064629 3.65079826 0 0 Z " fill="#216096" transform="translate(286,76)"/>
<path d="M0 0 C2.88437779 1.29299694 4.87219421 2.65941363 7 5 C5.35 4.67 3.7 4.34 2 4 C1.67 4.99 1.34 5.98 1 7 C0.67 4.69 0.34 2.38 0 0 Z " fill="#2E5874" transform="translate(253,70)"/>
<path d="M0 0 C1 3 1 3 -0.3125 5.6875 C-0.869375 6.450625 -1.42625 7.21375 -2 8 C-2.66 8 -3.32 8 -4 8 C-4 6.68 -4 5.36 -4 4 C-3.34 4 -2.68 4 -2 4 C-1.34 2.68 -0.68 1.36 0 0 Z " fill="#8A6BB8" transform="translate(118,54)"/>
<path d="M0 0 C0.66 0 1.32 0 2 0 C2 0.66 2 1.32 2 2 C2.99 2 3.98 2 5 2 C5.66 3.98 6.32 5.96 7 8 C5.8274869 7.04882866 4.66212985 6.08882991 3.5 5.125 C2.8503125 4.59132813 2.200625 4.05765625 1.53125 3.5078125 C1.0259375 3.01023437 0.520625 2.51265625 0 2 C0 1.34 0 0.68 0 0 Z " fill="#FD5013" transform="translate(543,105)"/>
<path d="M0 0 C0.33 0.66 0.66 1.32 1 2 C2.32 2 3.64 2 5 2 C5 2.99 5 3.98 5 5 C4.236875 4.835 3.47375 4.67 2.6875 4.5 C-0.03596236 3.90854604 -0.03596236 3.90854604 -3 4 C-2.01 2.68 -1.02 1.36 0 0 Z " fill="#ABDAEA" transform="translate(179,102)"/>
<path d="M0 0 C-3.50538557 1.96301592 -7.13351728 2.95902388 -11 4 C-10.67 3.01 -10.34 2.02 -10 1 C-6.78548731 -0.60725635 -3.56387464 -0.05748185 0 0 Z " fill="#D8ECFA" transform="translate(361,59)"/>
<path d="M0 0 C0 0.99 0 1.98 0 3 C-2.64 3 -5.28 3 -8 3 C-8 2.34 -8 1.68 -8 1 C-5.23735711 0.40267181 -2.83967231 0 0 0 Z " fill="#E8F0F7" transform="translate(371,56)"/>
<path d="M0 0 C0.33 0.99 0.66 1.98 1 3 C1.66 3.33 2.32 3.66 3 4 C0.6875 4.625 0.6875 4.625 -2 5 C-2.99 4.34 -3.98 3.68 -5 3 C-3.35 2.01 -1.7 1.02 0 0 Z " fill="#F4DBE7" transform="translate(121,113)"/>
<path d="M0 0 C0.66 0.33 1.32 0.66 2 1 C0.35 3.64 -1.3 6.28 -3 9 C-3.66 8.67 -4.32 8.34 -5 8 C-2.25 2.25 -2.25 2.25 0 0 Z " fill="#1C598D" transform="translate(404,62)"/>
<path d="M0 0 C1.65 0 3.3 0 5 0 C5 0.66 5 1.32 5 2 C5.639375 2.28875 6.27875 2.5775 6.9375 2.875 C9 4 9 4 10 6 C6.66666667 4.33333333 3.33333333 2.66666667 0 1 C0 0.67 0 0.34 0 0 Z " fill="#D4A94C" transform="translate(249,67)"/>
<path d="M0 0 C3.91402949 1.26941497 5.79072873 2.51167694 8 6 C7.01 6 6.02 6 5 6 C5 5.34 5 4.68 5 4 C3.35 3.67 1.7 3.34 0 3 C0 2.01 0 1.02 0 0 Z " fill="#EBA541" transform="translate(594,49)"/>
<path d="M0 0 C0 1.32 0 2.64 0 4 C-2.91517292 2.92598892 -4.77810176 2.22189824 -7 0 C-2.25 -1.125 -2.25 -1.125 0 0 Z " fill="#F8D6DA" transform="translate(121,46)"/>
<path d="M0 0 C2.0625 0.4375 2.0625 0.4375 4 1 C3.01 1 2.02 1 1 1 C0.67 2.98 0.34 4.96 0 7 C-0.99 6.34 -1.98 5.68 -3 5 C-1.125 1.125 -1.125 1.125 0 0 Z " fill="#343434" transform="translate(578,130)"/>
<path d="M0 0 C0.66 0.99 1.32 1.98 2 3 C1.01 4.98 0.02 6.96 -1 9 C-1.66 9 -2.32 9 -3 9 C-2.01 6.03 -1.02 3.06 0 0 Z " fill="#C8E0F0" transform="translate(305,71)"/>
<path d="M0 0 C2.08954032 4.17908064 2.16552619 4.80410573 1 9 C0.34 9 -0.32 9 -1 9 C-0.67 6.03 -0.34 3.06 0 0 Z " fill="#D0E4F4" transform="translate(331,67)"/>
<path d="M0 0 C-1.28913487 0.67154933 -2.58140204 1.33708859 -3.875 2 C-4.59429687 2.37125 -5.31359375 2.7425 -6.0546875 3.125 C-8 4 -8 4 -10 4 C-10 3.34 -10 2.68 -10 2 C-3.375 -1.125 -3.375 -1.125 0 0 Z " fill="#C2EDFC" transform="translate(133,45)"/>
<path d="M0 0 C1.32 0 2.64 0 4 0 C3.67 1.32 3.34 2.64 3 4 C1.68 4.33 0.36 4.66 -1 5 C-0.67 3.35 -0.34 1.7 0 0 Z " fill="#F3EAD3" transform="translate(556,42)"/>
</svg>
